<?xml version="1.0" encoding="UTF-8"?>
<svg id="Layer_2" xmlns="http://www.w3.org/2000/svg" viewBox="0 0 586.66 753.02">
  <defs>
    <style>
      .cls-1 {
        fill: #fff;
      }

      .cls-2 {
        fill: #5c4c52;
      }
    </style>
  </defs>
  <g id="Layer_2-2" data-name="Layer_2">
    <path class="cls-1" d="M397.64,435.13h115.06c40.85,0,73.96-33.11,73.96-73.96V73.96c0-40.85-33.11-73.96-73.96-73.96H73.96C33.11,0,0,33.11,0,73.96v287.21c0,40.85,33.11,73.96,73.96,73.96h277"/>
    <g>
      <path class="cls-2" d="M162.71,56.46h-43.54c-4.79,0-8.71,3.92-8.71,8.71v8.71h66.36l-6.36-12.63c-1.39-2.96-4.44-4.79-7.75-4.79Z"/>
      <path class="cls-2" d="M493.62,108.71h-20.73l-6.1-12.1-.26-.52s0-.09-.09-.09c-.35-.7-.78-1.39-1.31-1.92-.44-.52-.96-.96-1.48-1.31l-.09-.09c-.26-.17-.61-.26-.87-.44-.35-.26-.87-.44-1.31-.52-.09-.09-.17-.09-.35-.09-.7-.26-1.48-.35-2.26-.35h-54.51v41.71c0,12.89-10.54,23.42-23.42,23.42h-35.7c-12.89,0-23.42-10.54-23.42-23.42v-41.71H93.04c-4.79,0-8.71,3.92-8.71,8.71v52.25c0,4.79,3.92,8.71,8.71,8.71h69.66v26.12c0,4.79,3.92,8.71,8.71,8.71h104.5v19.24c0,22.99,18.72,41.71,41.71,41.71h53.03l25.51,107.02c2.09,8.8,9.84,14.89,18.81,14.89h65.14c5.92,0,11.49-2.7,15.15-7.4,3.74-4.62,5.05-10.62,3.66-16.46l-37.88-159.01h32.57c4.79,0,8.71-3.92,8.71-8.71v-69.66c0-4.79-3.92-8.71-8.71-8.71ZM317.63,239.33c-13.41,0-24.3-10.89-24.3-24.3v-19.24h54.86c-5.31,7.84-12.54,15.33-19.42,14.89-4.7-.26-8.97,3.31-9.32,8.1-.35,4.79,3.31,8.97,8.1,9.32.61,0,1.31.09,1.92.09,12.8,0,22.99-8.88,30.04-18.11l6.97,29.35h-48.85v-.09Z"/>
      <path class="cls-2" d="M339.13,133.01c0,3.31,2.7,5.92,5.92,5.92h35.79c3.31,0,5.92-2.7,5.92-5.92v-41.71h-47.72v41.71h.09Z"/>
    </g>
    <polyline class="cls-1" points="350.96 435.13 408.34 526.23 307.29 753.02 448.76 529.12 397.64 435.13"/>
  </g>
</svg>