<?xml version="1.0" encoding="UTF-8" standalone="no"?>
<!-- Created with Inkscape (http://www.inkscape.org/) -->

<svg
   width="155.22046mm"
   height="199.23654mm"
   viewBox="0 0 155.22046 199.23654"
   version="1.1"
   id="svg1"
   inkscape:version="1.3 (0e150ed6c4, 2023-07-21)"
   sodipodi:docname="desaprovacao_balao.svg"
   xmlns:inkscape="http://www.inkscape.org/namespaces/inkscape"
   xmlns:sodipodi="http://sodipodi.sourceforge.net/DTD/sodipodi-0.dtd"
   xmlns="http://www.w3.org/2000/svg"
   xmlns:svg="http://www.w3.org/2000/svg">
  <sodipodi:namedview
     id="namedview1"
     pagecolor="#505050"
     bordercolor="#eeeeee"
     borderopacity="1"
     inkscape:showpageshadow="0"
     inkscape:pageopacity="0"
     inkscape:pagecheckerboard="0"
     inkscape:deskcolor="#505050"
     inkscape:document-units="mm"
     inkscape:zoom="0.72426347"
     inkscape:cx="96.649911"
     inkscape:cy="464.60993"
     inkscape:window-width="1920"
     inkscape:window-height="1009"
     inkscape:window-x="1912"
     inkscape:window-y="-8"
     inkscape:window-maximized="1"
     inkscape:current-layer="Layer_2-2" />
  <defs
     id="defs1" />
  <g
     inkscape:label="Layer 1"
     inkscape:groupmode="layer"
     id="layer1"
     transform="translate(-79.375,-25.664583)">
    <g
       id="Layer_2-2"
       data-name="Layer_2"
       transform="matrix(0.26458333,0,0,0.26458333,79.375,25.664583)">
      <path
         class="cls-1"
         d="M 397.64,435.13 H 512.7 c 40.85,0 73.96,-33.11 73.96,-73.96 V 73.96 C 586.66,33.11 553.55,0 512.7,0 H 73.96 C 33.11,0 0,33.11 0,73.96 v 287.21 c 0,40.85 33.11,73.96 73.96,73.96 h 277"
         id="path1"
         style="fill:#ffffff" />
      <polyline
         class="cls-1"
         points="350.96 435.13 408.34 526.23 307.29 753.02 448.76 529.12 397.64 435.13"
         id="polyline1"
         style="fill:#ffffff" />
      <g
         id="g3"
         transform="matrix(1,0,0,-1,0,435.11996)">
        <path
           class="cls-2"
           d="m 183.1,186.88 h -60.31 c -5.63,0 -10.05,4.42 -10.05,10.05 v 160.83 c 0,5.63 4.42,10.05 10.05,10.05 h 60.31 c 5.63,0 10.05,-4.42 10.05,-10.05 V 196.93 c 0,-5.63 -4.42,-10.05 -10.05,-10.05 z"
           id="path2"
           style="fill:#5c4c52" />
        <path
           class="cls-2"
           d="m 473.92,205.93 c 0,-16.38 -11.25,-32.96 -32.73,-32.96 H 343.8 c 13.91,-24.89 18,-59.89 8.33,-85.5 -7.1,-18.84 -20.68,-29.83 -38.25,-30.95 L 313.6,56.5 c -11.43,-0.7 -21.33,7.86 -22.28,19.28 -2.5,25.4 -13.63,70.33 -29.59,86.28 -13.43,13.43 -24.93,19.06 -43.98,28.37 -2.76,1.35 -5.77,2.82 -8.96,4.41 0.06,0.69 0.09,1.38 0.09,2.09 v 159.19 c 2.3,0.79 4.57,1.57 6.8,2.34 31.45,10.84 58.63,20.2 100.18,20.2 h 78.73 c 21.49,0 32.73,-16.58 32.73,-32.96 0,-4.86 -0.99,-9.73 -2.94,-14.2 7.16,-1.29 13.42,-4.73 18.06,-10 5.27,-5.99 8.17,-13.94 8.17,-22.4 0,-4.84 -0.99,-9.72 -2.93,-14.17 17.25,-2.98 26.23,-17.78 26.23,-32.42 0,-8.49 -3.02,-17.04 -8.92,-23.29 5.89,-6.26 8.92,-14.81 8.92,-23.3 z"
           id="path3"
           style="fill:#5c4c52" />
      </g>
    </g>
  </g>
</svg>
