<?xml version="1.0" encoding="UTF-8" standalone="no"?>
<!-- Created with Inkscape (http://www.inkscape.org/) -->

<svg
   width="370.41025mm"
   height="254.73448mm"
   viewBox="0 0 370.41025 254.73448"
   version="1.1"
   id="svg1"
   inkscape:version="1.3 (0e150ed6c4, 2023-07-21)"
   sodipodi:docname="douces_nome.svg"
   xmlns:inkscape="http://www.inkscape.org/namespaces/inkscape"
   xmlns:sodipodi="http://sodipodi.sourceforge.net/DTD/sodipodi-0.dtd"
   xmlns="http://www.w3.org/2000/svg"
   xmlns:svg="http://www.w3.org/2000/svg">
  <sodipodi:namedview
     id="namedview1"
     pagecolor="#505050"
     bordercolor="#eeeeee"
     borderopacity="1"
     inkscape:showpageshadow="0"
     inkscape:pageopacity="0"
     inkscape:pagecheckerboard="0"
     inkscape:deskcolor="#505050"
     inkscape:document-units="mm"
     inkscape:zoom="0.72426347"
     inkscape:cx="700.0215"
     inkscape:cy="613.72694"
     inkscape:window-width="1920"
     inkscape:window-height="1009"
     inkscape:window-x="1912"
     inkscape:window-y="-8"
     inkscape:window-maximized="1"
     inkscape:current-layer="Layer_2-2" />
  <defs
     id="defs1" />
  <g
     inkscape:label="Layer 1"
     inkscape:groupmode="layer"
     id="layer1"
     transform="translate(80.433334,14.022918)">
    <g
       id="Layer_2-2"
       data-name="Layer_2"
       transform="matrix(0.26458333,0,0,0.26458333,-131.30988,-63.651609)">
      <g
         id="g1">
        <path
           d="M 82.2,9.4 Q 61.4,9.4 47.2,2 33,-5.2 24.4,-17.2 16,-29.2 12.2,-43.4 8.4,-57.6 8.4,-71.6 q 0,-16.6 5.4,-32.8 5.4,-16.2 16.2,-29.4 11,-13.2 27.2,-21.2 16.4,-8 38.2,-8 18.4,0 32.2,5.4 13.8,5.2 23.6,12.8 10,7.4 16,14 l -25,27 q -5.6,-6.6 -12,-12.4 -6.2,-5.8 -14.8,-9.4 -8.6,-3.6 -21.2,-3.6 -13.6,0 -23.4,5 -9.8,4.8 -16,13 -6.2,8.2 -9.2,18.4 -2.8,10.2 -2.8,21 0,12.8 4.2,23.6 4.4,10.8 13,17.4 8.8,6.6 21.8,6.6 16,0 26.4,-7.4 10.4,-7.4 14.4,-21.2 -8.6,0.6 -16.6,1.6 -7.8,0.8 -14,1.8 l -3.4,-32.4 q 11.8,-2.6 27.2,-3.8 15.6,-1.4 29.8,-1.4 19.6,0 29.4,2.4 l -0.8,32.8 q -4.2,-1.2 -13.4,-1.8 0,4.4 0,9.2 0.2,4.8 0.2,9.8 0,13.8 -0.4,27.2 Q 160.2,6 159.8,14 l -34.2,-0.8 q 0.2,-2.6 0.6,-8 0.6,-5.4 1.2,-12.2 -6.8,7.2 -17.8,11.8 -10.8,4.6 -27.4,4.6 z"
           id="text1"
           class="cls-1"
           style="font-size:200px;font-family:MochiyPopOne-Regular, 'Mochiy Pop One';fill:#8dbeb2"
           transform="rotate(-96.34,697.49242,411.50195)"
           aria-label="G" />
        <path
           d="M 54,16.4 Q 41.2,16.4 32.8,11.8 24.6,7.4 19.6,-0.4 14.8,-8.2 12.4,-17.8 10.2,-27.6 9.4,-38 8.8,-48.6 8.8,-58.4 q 0,-11.2 0.6,-22.8 0.8,-11.6 1.6,-25.4 l 36.6,-2.2 q -0.6,4.2 -1.8,12.6 -1.2,8.4 -2.2,19.2 -1,10.8 -1,22.6 0,19.4 3.4,28.8 3.4,9.2 10.2,9.2 13.6,0 20,-19.8 6.4,-19.8 6.4,-62.6 v -9.2 l 17,-0.4 20.6,-0.4 q -2.8,18.8 -4.2,34.6 -1.4,15.8 -1.8,26.6 -0.4,10.6 -0.4,14.2 0,9.2 1.6,13.2 1.6,3.8 5.6,3.8 2,0 4.4,-0.8 2.4,-0.8 5.6,-2.8 l -1.4,34.4 q -7.6,1.2 -13.2,1.2 -9.6,0 -15.8,-3.6 Q 94.6,8.4 91,2.4 84.8,9 75.6,12.6 66.6,16.4 54,16.4 Z"
           id="text2"
           class="cls-1"
           style="font-size:200px;font-family:MochiyPopOne-Regular, 'Mochiy Pop One';fill:#8dbeb2"
           transform="rotate(-82.86,726.31889,290.44392)"
           aria-label="u" />
        <path
           d="M 68.4,16.6 Q 54.8,16.6 43.2,13.4 31.6,10.2 22.2,5.2 12.8,0.2 5.4,-5.4 l 18,-29 q 8.4,7.8 16.2,12 7.8,4.2 16.2,5.8 8.6,1.6 18.6,1.6 8.6,0 13.8,-2.2 5.2,-2.4 5.2,-6 0,-3 -5,-4.6 -5,-1.8 -12.8,-3 -7.8,-1.4 -16.4,-3.4 Q 47,-37.4 36.4,-41.6 25.8,-45.8 19.2,-53 q -6.4,-7.2 -6.4,-19.2 0,-9.6 4.6,-16.8 4.6,-7.4 12.2,-12.2 7.8,-5 17.6,-7.4 9.8,-2.4 20.2,-2.4 18,0 31,4.4 13.2,4.2 25.2,11.2 l -18.2,27.6 Q 99.4,-72 91.6,-75 84,-78.2 76.2,-79.8 68.6,-81.6 62,-81.6 q -7.2,0 -11.4,2.2 -4,2.2 -4,6.2 0,2.4 5,4.6 5.2,2 19.6,5.4 8.6,2 18.2,4.2 9.6,2 18,5.8 8.6,3.6 13.8,10.6 5.4,6.8 5.4,18.2 0,19.2 -15.4,30 -15.4,11 -42.8,11 z"
           id="text3"
           class="cls-1"
           style="font-size:200px;font-family:MochiyPopOne-Regular, 'Mochiy Pop One';fill:#8dbeb2"
           transform="rotate(-71.56,767.93878,169.94684)"
           aria-label="s" />
        <path
           d="m 69.6,15.8 q -12,0 -19,-5.2 -7,-5 -10.2,-14 -3.2,-9 -4.2,-20.6 -0.8,-11.6 -0.8,-24.4 0,-13.2 1,-27.4 -13.4,1.8 -25.8,4.6 l -6.2,-31.4 q 16.6,-4.4 35.4,-6.4 1.4,-10.2 3,-21.4 1.6,-11.4 3.6,-24 l 34.4,3 q -2.4,10.4 -4.2,20.8 -1.8,10.2 -3.2,19.8 11.2,0 21,0.6 10,0.4 18.4,1.6 l -4,31.4 q -7,-0.8 -14.6,-1 -7.4,-0.4 -15,-0.4 -4.6,0 -9.2,0.2 -1.2,14.6 -1.6,25 -0.2,10.4 -0.2,14.8 0,11 1.2,15.8 1.4,4.8 4.4,4.8 3.4,0 7.6,-2.2 4.2,-2.4 8.2,-6.4 4.2,-4 7,-8.6 L 112,-3 Q 92.2,15.8 69.6,15.8 Z"
           id="text4"
           class="cls-1"
           style="font-size:200px;font-family:MochiyPopOne-Regular, 'Mochiy Pop One';fill:#8dbeb2"
           transform="rotate(-61.19,814.93656,20.911633)"
           aria-label="t" />
        <path
           d="M 59.8,15.8 Q 44.8,15.8 32.6,8 20.4,0.4 13.2,-12.6 q -7,-13.2 -7,-29.4 0,-15.2 5.6,-27.4 5.6,-12.4 15.2,-21.2 9.8,-8.8 22.2,-13.4 12.4,-4.8 26,-4.8 11.4,0 22.4,3.2 0.8,-4.2 1.4,-8.4 l 34.2,5.8 q -1.4,3.8 -2.8,11.4 -1.4,7.6 -2.4,17 -0.8,9.4 -1.4,18.8 -0.6,9.4 -0.6,17 0,6.2 0.8,12.2 1,5.8 4,9.6 3,3.6 9.2,3.6 h 2.8 l -5,34.8 q -13.2,0 -21.8,-4.6 -8.6,-4.4 -13.8,-12 -8.6,9.6 -19.6,12.8 -11,3.4 -22.8,3.4 z M 39,-38 q 1,9.6 7.8,15.4 7,5.6 17.6,5.6 10.2,0 17,-5.4 6.8,-5.6 11.2,-15.2 -0.2,-3.2 -0.2,-6.6 0,-7 0.4,-14.4 0.4,-7.4 1,-14.6 -8.4,-3.2 -17.6,-3.2 -10.8,0 -19.4,4.4 -8.4,4.2 -13.2,11.8 -4.8,7.6 -4.8,17.6 0,1.2 0,2.4 0,1.2 0.2,2.2 z"
           id="text5"
           class="cls-1"
           style="font-size:200px;font-family:MochiyPopOne-Regular, 'Mochiy Pop One';fill:#8dbeb2"
           transform="rotate(-50.28,895.36602,-172.41219)"
           aria-label="a" />
        <path
           d="M 67,15.6 Q 58.8,15.6 52.8,10.8 46.8,6 42.4,-1 38,-8 34.6,-14.6 28.4,-27.2 22.8,-42.2 17.2,-57.2 13,-73.4 8.8,-89.6 6.6,-105.4 l 36.2,-5.2 q 1.6,18.6 5,35 3.4,16.4 8,29.2 4.6,12.8 9.4,20.8 1,1.4 1.8,2.8 1,1.4 1,1.4 0.4,0 3.2,-4.2 8.8,-15.4 16.4,-36 7.6,-20.6 13.2,-49.8 l 35.2,7 q -5.2,18.8 -9.6,32.8 -4.4,13.8 -8.6,24.2 -4.2,10.4 -8.4,18.8 -4.2,8.2 -8.8,16 -3,5.4 -7.8,12 -4.6,6.6 -11,11.4 -6.4,4.8 -14.8,4.8 z"
           id="text6"
           class="cls-1"
           style="font-size:200px;font-family:MochiyPopOne-Regular, 'Mochiy Pop One';fill:#8dbeb2"
           transform="rotate(-38.25,1020.7229,-525.02221)"
           aria-label="v" />
        <path
           d="M 69,16.4 Q 53,16.4 41,11.2 29.2,6 21.4,-3 13.6,-12.2 9.8,-24 6,-35.8 6,-48.8 6,-62 10.6,-73.2 q 4.8,-11.4 13,-19.8 8.4,-8.4 19.6,-13 11.2,-4.8 24.4,-4.8 13.8,0 25.6,4.8 11.8,4.8 20.6,13.4 8.8,8.6 13.6,20.2 5,11.6 5,25.2 0,30.2 -16.6,47 Q 99.2,16.4 69,16.4 Z M 68.8,-16 q 14.6,0 22.2,-8.2 7.8,-8.2 7.8,-23.6 0,-13.8 -8.4,-22.2 -8.4,-8.4 -22,-8.4 -8.2,0 -15,4.4 -6.8,4.2 -11,11.4 -4,7 -4,15.6 0,7.6 3,14.8 3.2,7.2 10,11.8 6.8,4.4 17.4,4.4 z"
           id="text7"
           class="cls-1"
           style="font-size:200px;font-family:MochiyPopOne-Regular, 'Mochiy Pop One';fill:#8dbeb2"
           transform="rotate(-26.46,1249.7988,-1166.3144)"
           aria-label="o" />
        <text
           class="cls-1"
           transform="rotate(-18.77,1528.2812,-2144.988)"
           id="text8"
           style="font-size:200px;font-family:MochiyPopOne-Regular, 'Mochiy Pop One';fill:#8dbeb2"><tspan
             x="0"
             y="0"
             id="tspan8" /></text>
        <path
           d="m 41.8,15.8 -33.6,-3 7.4,-137.4 q -5.2,1.2 -9.6,2.8 l -6,-34 q 10.6,-2.2 26.2,-4.6 15.6,-2.4 32.2,-2.4 12.8,0 26,2.8 13.2,2.6 25.2,8.8 12.2,6 21.6,16.2 9.6,10.2 15,25 5.6,14.8 5.6,35 0,28.4 -9.2,48.6 -9,20 -26.4,30.6 -17.2,10.6 -41.6,10.6 -16.2,0 -32,-6 -0.4,4 -0.8,7 z m 15.2,-145 q -2.8,0 -5.8,0 -2,37.2 -3.6,63.4 -1.6,26 -2.8,43.4 6,2 13.2,3.6 7.4,1.4 15.4,1.4 16.2,0 26,-8.2 10,-8.2 14.4,-21.6 4.4,-13.6 4.4,-29.4 0,-12.6 -3.8,-21.4 -3.8,-8.8 -10,-14.6 -6,-5.8 -13.2,-9 -7.2,-3.4 -14.2,-5 -6.8,-1.6 -12.2,-2 -5.4,-0.6 -7.8,-0.6 z"
           id="text9"
           class="cls-1"
           style="font-size:200px;font-family:MochiyPopOne-Regular, 'Mochiy Pop One';fill:#8dbeb2"
           transform="rotate(-10.33,2396.7438,-4294.4637)"
           aria-label="D" />
        <path
           d="M 69,16.4 Q 53,16.4 41,11.2 29.2,6 21.4,-3 13.6,-12.2 9.8,-24 6,-35.8 6,-48.8 6,-62 10.6,-73.2 q 4.8,-11.4 13,-19.8 8.4,-8.4 19.6,-13 11.2,-4.8 24.4,-4.8 13.8,0 25.6,4.8 11.8,4.8 20.6,13.4 8.8,8.6 13.6,20.2 5,11.6 5,25.2 0,30.2 -16.6,47 Q 99.2,16.4 69,16.4 Z M 68.8,-16 q 14.6,0 22.2,-8.2 7.8,-8.2 7.8,-23.6 0,-13.8 -8.4,-22.2 -8.4,-8.4 -22,-8.4 -8.2,0 -15,4.4 -6.8,4.2 -11,11.4 -4,7 -4,15.6 0,7.6 3,14.8 3.2,7.2 10,11.8 6.8,4.4 17.4,4.4 z"
           id="text10"
           class="cls-1"
           style="font-size:200px;font-family:MochiyPopOne-Regular, 'Mochiy Pop One';fill:#8dbeb2"
           transform="rotate(2.11,-8566.5983,26199.822)"
           aria-label="o" />
        <path
           d="M 54,16.4 Q 41.2,16.4 32.8,11.8 24.6,7.4 19.6,-0.4 14.8,-8.2 12.4,-17.8 10.2,-27.6 9.4,-38 8.8,-48.6 8.8,-58.4 q 0,-11.2 0.6,-22.8 0.8,-11.6 1.6,-25.4 l 36.6,-2.2 q -0.6,4.2 -1.8,12.6 -1.2,8.4 -2.2,19.2 -1,10.8 -1,22.6 0,19.4 3.4,28.8 3.4,9.2 10.2,9.2 13.6,0 20,-19.8 6.4,-19.8 6.4,-62.6 v -9.2 l 17,-0.4 20.6,-0.4 q -2.8,18.8 -4.2,34.6 -1.4,15.8 -1.8,26.6 -0.4,10.6 -0.4,14.2 0,9.2 1.6,13.2 1.6,3.8 5.6,3.8 2,0 4.4,-0.8 2.4,-0.8 5.6,-2.8 l -1.4,34.4 q -7.6,1.2 -13.2,1.2 -9.6,0 -15.8,-3.6 Q 94.6,8.4 91,2.4 84.8,9 75.6,12.6 66.6,16.4 54,16.4 Z"
           id="text11"
           class="cls-1"
           style="font-size:200px;font-family:MochiyPopOne-Regular, 'Mochiy Pop One';fill:#8dbeb2"
           transform="rotate(13.68,-861.05544,4714.4667)"
           aria-label="u" />
        <path
           d="m 68.4,16.2 q -16.8,0 -31,-7 -14.2,-7 -22.8,-20 Q 6,-24 6,-42.2 6,-62.6 14,-78 q 8,-15.4 22.4,-23.8 14.4,-8.6 33.6,-8.6 18.4,0 31.2,7.6 12.8,7.4 22.8,23.6 L 96.2,-60 Q 90.6,-69 84.8,-73.6 79,-78.4 69,-78.4 q -13.6,0 -22,9.6 -8.4,9.4 -8.4,25.2 0,9.2 4.4,15 4.6,5.8 11.2,8.6 6.6,2.8 12.4,2.8 6,0 11.6,-1.4 5.6,-1.6 10.6,-6.8 5,-5.2 9,-15.8 l 30,16 q -6,11 -13.4,20.4 Q 107,4.6 96,10.4 85.2,16.2 68.4,16.2 Z"
           id="text12"
           class="cls-1"
           style="font-size:200px;font-family:MochiyPopOne-Regular, 'Mochiy Pop One';fill:#8dbeb2"
           transform="rotate(24.89,-225.00464,2944.156)"
           aria-label="c" />
        <path
           d="M 70,16 Q 50.8,16 36.2,8.4 21.8,1 13.6,-12.4 q -8,-13.4 -8,-31 0,-10.6 3.6,-22.2 3.6,-11.8 11.6,-22 8,-10.2 21,-16.6 13.2,-6.4 32,-6.4 13.6,0 22.8,3 9.4,3 15.2,7.8 6,4.8 9,10.2 3.2,5.4 4.2,10.4 1.2,4.8 1.2,8 0,19.4 -16.4,30 -16.2,10.4 -46,10.4 -6.8,0 -13,-0.6 -6,-0.6 -11.2,-1.4 3.8,10 12.6,14.8 8.8,4.6 18.2,4.6 13.6,0 24,-4.8 10.4,-5 19.6,-15.2 l 17.8,25.6 Q 125.4,-2.6 117.4,3 109.6,8.6 98.2,12.2 86.8,16 70,16 Z m 4.4,-96.6 q -11.8,0 -20.8,6 -9,6 -13.2,15.8 5,0.8 9.8,1.4 5,0.4 9.8,0.4 4.4,0 10,-0.8 5.8,-0.8 11.2,-2.4 5.6,-1.6 9.2,-4 3.6,-2.6 3.6,-6 0,-1.6 -1.6,-4 -1.6,-2.4 -5.8,-4.4 -4.2,-2 -12.2,-2 z"
           id="text13"
           class="cls-1"
           style="font-size:200px;font-family:MochiyPopOne-Regular, 'Mochiy Pop One';fill:#8dbeb2"
           transform="rotate(36.04,20.544762,2257.3775)"
           aria-label="e" />
        <path
           d="M 68.4,16.6 Q 54.8,16.6 43.2,13.4 31.6,10.2 22.2,5.2 12.8,0.2 5.4,-5.4 l 18,-29 q 8.4,7.8 16.2,12 7.8,4.2 16.2,5.8 8.6,1.6 18.6,1.6 8.6,0 13.8,-2.2 5.2,-2.4 5.2,-6 0,-3 -5,-4.6 -5,-1.8 -12.8,-3 -7.8,-1.4 -16.4,-3.4 Q 47,-37.4 36.4,-41.6 25.8,-45.8 19.2,-53 q -6.4,-7.2 -6.4,-19.2 0,-9.6 4.6,-16.8 4.6,-7.4 12.2,-12.2 7.8,-5 17.6,-7.4 9.8,-2.4 20.2,-2.4 18,0 31,4.4 13.2,4.2 25.2,11.2 l -18.2,27.6 Q 99.4,-72 91.6,-75 84,-78.2 76.2,-79.8 68.6,-81.6 62,-81.6 q -7.2,0 -11.4,2.2 -4,2.2 -4,6.2 0,2.4 5,4.6 5.2,2 19.6,5.4 8.6,2 18.2,4.2 9.6,2 18,5.8 8.6,3.6 13.8,10.6 5.4,6.8 5.4,18.2 0,19.2 -15.4,30 -15.4,11 -42.8,11 z"
           id="text14"
           class="cls-1"
           style="font-size:200px;font-family:MochiyPopOne-Regular, 'Mochiy Pop One';fill:#8dbeb2"
           transform="rotate(47.27,151.55168,1891.7501)"
           aria-label="s" />
      </g>
    </g>
  </g>
</svg>
