<?xml version="1.0" encoding="UTF-8" standalone="no"?>
<!-- Created with Inkscape (http://www.inkscape.org/) -->

<svg
   width="310.37466mm"
   height="337.51703mm"
   viewBox="0 0 310.37466 337.51703"
   version="1.1"
   id="svg1"
   inkscape:version="1.3 (0e150ed6c4, 2023-07-21)"
   sodipodi:docname="lurdes_nome.svg"
   xmlns:inkscape="http://www.inkscape.org/namespaces/inkscape"
   xmlns:sodipodi="http://sodipodi.sourceforge.net/DTD/sodipodi-0.dtd"
   xmlns="http://www.w3.org/2000/svg"
   xmlns:svg="http://www.w3.org/2000/svg">
  <sodipodi:namedview
     id="namedview1"
     pagecolor="#505050"
     bordercolor="#eeeeee"
     borderopacity="1"
     inkscape:showpageshadow="0"
     inkscape:pageopacity="0"
     inkscape:pagecheckerboard="0"
     inkscape:deskcolor="#505050"
     inkscape:document-units="mm"
     inkscape:zoom="0.72426347"
     inkscape:cx="556.42735"
     inkscape:cy="518.45774"
     inkscape:window-width="1920"
     inkscape:window-height="1009"
     inkscape:window-x="1912"
     inkscape:window-y="-8"
     inkscape:window-maximized="1"
     inkscape:current-layer="Layer_2-2" />
  <defs
     id="defs1" />
  <g
     inkscape:label="Layer 1"
     inkscape:groupmode="layer"
     id="layer1"
     transform="translate(42.33333,-10.847916)">
    <g
       id="Layer_2-2"
       data-name="Layer_2"
       transform="matrix(0.26458333,0,0,0.26458333,-149.29277,-63.774814)">
      <g
         id="g1">
        <path
           d="m 25,13.8 q -0.6,-13.6 -0.6,-30 0,-15.8 0.6,-33.6 0.6,-17.8 1.8,-36 1.2,-18.4 3.2,-35.8 -3.2,0.8 -6.2,1.6 -2.8,0.6 -5.2,1.4 L 8.4,-150.4 q 48.4,-11.4 80.6,-11.4 65.4,0 65.4,49.8 0,23.4 -15.6,37.2 -15.6,13.6 -45.8,17.2 18.2,15.4 36.6,25.4 18.6,9.8 37.6,16.6 l -22,29.4 Q 134.6,10 123,3.2 111.4,-3.6 100,-11.8 88.6,-20 78.2,-28.4 68,-36.8 60,-44 q -0.2,13.8 -0.4,28 0,14 0,29 l -1.2,1.2 q -7.6,0 -16.4,0 -8.6,0.2 -15.6,0.8 z M 87.2,-130 q -5.6,0 -11.6,0.6 -6,0.4 -12,1.2 -0.8,11.2 -1.4,22.2 -0.6,10.8 -1,21.6 8.8,-0.2 19,-1 10.4,-1 19.6,-3.6 9.2,-2.8 15,-8 6,-5.2 6,-13.8 0,-10 -8.2,-14.6 -8.2,-4.6 -25.4,-4.6 z"
           id="text1"
           class="cls-1"
           style="font-size:200px;font-family:MochiyPopOne-Regular, 'Mochiy Pop One';fill:#f16060"
           transform="rotate(-15.51,2028.4759,-1355.6534)"
           aria-label="R" />
        <path
           d="M 70,16 Q 50.8,16 36.2,8.4 21.8,1 13.6,-12.4 q -8,-13.4 -8,-31 0,-10.6 3.6,-22.2 3.6,-11.8 11.6,-22 8,-10.2 21,-16.6 13.2,-6.4 32,-6.4 13.6,0 22.8,3 9.4,3 15.2,7.8 6,4.8 9,10.2 3.2,5.4 4.2,10.4 1.2,4.8 1.2,8 0,19.4 -16.4,30 -16.2,10.4 -46,10.4 -6.8,0 -13,-0.6 -6,-0.6 -11.2,-1.4 3.8,10 12.6,14.8 8.8,4.6 18.2,4.6 13.6,0 24,-4.8 10.4,-5 19.6,-15.2 l 17.8,25.6 Q 125.4,-2.6 117.4,3 109.6,8.6 98.2,12.2 86.8,16 70,16 Z m 4.4,-96.6 q -11.8,0 -20.8,6 -9,6 -13.2,15.8 5,0.8 9.8,1.4 5,0.4 9.8,0.4 4.4,0 10,-0.8 5.8,-0.8 11.2,-2.4 5.6,-1.6 9.2,-4 3.6,-2.6 3.6,-6 0,-1.6 -1.6,-4 -1.6,-2.4 -5.8,-4.4 -4.2,-2 -12.2,-2 z"
           id="text2"
           class="cls-1"
           style="font-size:200px;font-family:MochiyPopOne-Regular, 'Mochiy Pop One';fill:#f16060"
           transform="rotate(-3.45,7762.1112,-9697.1937)"
           aria-label="e" />
        <path
           d="m 9,-129.2 q 0,-1.8 -0.2,-3.6 0,-2 0,-4.4 0,-6.4 0.4,-13.6 0.4,-7.2 0.8,-12.2 l 35.6,0.6 q -0.6,6.8 -1.4,15.4 -0.6,8.6 -0.8,17.8 z M 8.2,14 Q 7.6,1.6 7.4,-12.4 7.2,-26.6 7.2,-40.8 7.2,-59.4 7.6,-77 8,-94.6 8.6,-109 l 34.4,-0.2 q -0.8,9.2 -1,22.8 -0.2,13.4 -0.2,28.2 0,14.6 0.2,28.8 0.2,14.2 0.4,25.8 Q 42.8,7.8 43,14 Z"
           id="text3"
           class="cls-1"
           style="font-size:200px;font-family:MochiyPopOne-Regular, 'Mochiy Pop One';fill:#f16060"
           transform="rotate(3.93,-6104.8507,10868.846)"
           aria-label="i" />
        <path
           d="m 11.2,14.4 q -0.6,-17.6 -1,-32.6 -0.2,-15 -0.2,-29.6 0,-14.6 0.2,-29.2 0.4,-14.8 1.2,-31.6 h 33.8 q -0.8,9 -1.4,18.2 6.8,-8.6 16.2,-14.2 9.4,-5.8 22.2,-5.8 12.6,0 20.6,4.2 8.2,4.2 12.8,11.6 4.8,7.4 6.8,17 2.2,9.4 2.8,20.4 0.6,10.8 0.6,21.8 0,12 -0.4,23 -0.4,11 -0.8,18.4 -0.4,7.4 -0.6,8.8 H 90.4 Q 90.8,6.6 91.2,-2.6 91.6,-12 92,-21 q 0.4,-9.2 0.4,-16.6 0,-42.6 -13.8,-42.6 -11.4,0 -20.8,10 -9.2,9.8 -15.4,24.8 0,2 0,4 0,9.6 0,20 0.2,10.2 0.4,19.6 0.4,9.2 0.6,16 z"
           id="text4"
           class="cls-1"
           style="font-size:200px;font-family:MochiyPopOne-Regular, 'Mochiy Pop One';fill:#f16060"
           transform="rotate(11.21,-1874.5783,4192.7023)"
           aria-label="n" />
        <path
           d="M 59.8,15.8 Q 44.8,15.8 32.6,8 20.4,0.4 13.2,-12.6 q -7,-13.2 -7,-29.4 0,-15.2 5.6,-27.4 5.6,-12.4 15.2,-21.2 9.8,-8.8 22.2,-13.4 12.4,-4.8 26,-4.8 11.4,0 22.4,3.2 0.8,-4.2 1.4,-8.4 l 34.2,5.8 q -1.4,3.8 -2.8,11.4 -1.4,7.6 -2.4,17 -0.8,9.4 -1.4,18.8 -0.6,9.4 -0.6,17 0,6.2 0.8,12.2 1,5.8 4,9.6 3,3.6 9.2,3.6 h 2.8 l -5,34.8 q -13.2,0 -21.8,-4.6 -8.6,-4.4 -13.8,-12 -8.6,9.6 -19.6,12.8 -11,3.4 -22.8,3.4 z M 39,-38 q 1,9.6 7.8,15.4 7,5.6 17.6,5.6 10.2,0 17,-5.4 6.8,-5.6 11.2,-15.2 -0.2,-3.2 -0.2,-6.6 0,-7 0.4,-14.4 0.4,-7.4 1,-14.6 -8.4,-3.2 -17.6,-3.2 -10.8,0 -19.4,4.4 -8.4,4.2 -13.2,11.8 -4.8,7.6 -4.8,17.6 0,1.2 0,2.4 0,1.2 0.2,2.2 z"
           id="text5"
           class="cls-1"
           style="font-size:200px;font-family:MochiyPopOne-Regular, 'Mochiy Pop One';fill:#f16060"
           transform="rotate(22,-751.99328,2566.5786)"
           aria-label="a" />
        <path
           d="m 48.6,15.8 q -11,0 -18.2,-4.8 -7,-4.6 -11.2,-12.8 -4,-8.2 -6,-18.8 -1.8,-10.6 -2.4,-22.6 -0.4,-12.2 -0.4,-24.4 0,-10.6 0.6,-23.2 0.6,-12.8 1.4,-25.8 1,-13.2 2,-24.8 1.2,-11.6 2.2,-20.2 l 36.2,0.4 q -1.6,10.2 -3,23.2 -1.4,12.8 -2.4,26 -0.8,13.2 -1.4,24.4 -0.4,11.2 -0.4,17.8 0,18.2 0.6,28.6 0.8,10.4 2.2,14.8 1.6,4.2 4.2,4.2 3.4,0 7.4,-4.2 4,-4.4 7.8,-9.8 l 17,33.8 Q 78.6,4.4 70,10 61.4,15.8 48.6,15.8 Z"
           id="text6"
           class="cls-1"
           style="font-size:200px;font-family:MochiyPopOne-Regular, 'Mochiy Pop One';fill:#f16060"
           transform="rotate(31.13,-420.21592,2121.241)"
           aria-label="l" />
        <path
           d="M 60,15.8 Q 49.6,15.8 39.6,12.2 29.8,8.6 21.8,1 14,-6.4 9.4,-17.6 4.8,-29 4.8,-44.2 q 0,-17.2 5.2,-29.6 5.4,-12.6 14.2,-20.6 8.8,-8.2 19.6,-12.2 10.8,-4 21.6,-4 6.4,0 12.2,1 5.8,0.8 10.8,2.4 0.6,-14.6 1.4,-29.4 1,-14.8 2.2,-29.2 l 33.6,2.2 q -1.6,16.6 -2.8,35.8 -1.2,19 -1.8,38.8 -0.4,19.8 -0.4,38.6 0,17.6 0.4,33.6 0.6,15.8 1.4,28.8 L 87.8,14.6 Q 87.6,10.8 87.6,7.2 81.8,11 74.8,13.4 68,15.8 60,15.8 Z M 37,-46 q 0,10.4 4,16.4 4,5.8 9.8,8.2 5.8,2.4 11.2,2.4 6.4,0 12.8,-2.8 6.4,-2.8 12,-9.8 0,-2.4 0,-4.6 0,-16.2 0.4,-33.2 -9.4,-8.2 -20.4,-8.2 -4.6,0 -9.8,1.4 -5.2,1.4 -9.8,5 -4.4,3.4 -7.4,9.6 -2.8,6 -2.8,15.6 z"
           id="text7"
           class="cls-1"
           style="font-size:200px;font-family:MochiyPopOne-Regular, 'Mochiy Pop One';fill:#f16060"
           transform="rotate(39.76,-227.06333,1820.6719)"
           aria-label="d" />
        <path
           d="M 69,16.4 Q 53,16.4 41,11.2 29.2,6 21.4,-3 13.6,-12.2 9.8,-24 6,-35.8 6,-48.8 6,-62 10.6,-73.2 q 4.8,-11.4 13,-19.8 8.4,-8.4 19.6,-13 11.2,-4.8 24.4,-4.8 13.8,0 25.6,4.8 11.8,4.8 20.6,13.4 8.8,8.6 13.6,20.2 5,11.6 5,25.2 0,30.2 -16.6,47 Q 99.2,16.4 69,16.4 Z M 68.8,-16 q 14.6,0 22.2,-8.2 7.8,-8.2 7.8,-23.6 0,-13.8 -8.4,-22.2 -8.4,-8.4 -22,-8.4 -8.2,0 -15,4.4 -6.8,4.2 -11,11.4 -4,7 -4,15.6 0,7.6 3,14.8 3.2,7.2 10,11.8 6.8,4.4 17.4,4.4 z"
           id="text8"
           class="cls-1"
           style="font-size:200px;font-family:MochiyPopOne-Regular, 'Mochiy Pop One';fill:#f16060"
           transform="rotate(50.24,-84.486001,1612.7908)"
           aria-label="o" />
        <text
           class="cls-1"
           transform="rotate(57.38,-39.52942,1556.8041)"
           id="text9"
           style="font-size:200px;font-family:MochiyPopOne-Regular, 'Mochiy Pop One';fill:#f16060"><tspan
             x="0"
             y="0"
             id="tspan9" /></text>
        <path
           d="M 72.4,14.6 Q 52.6,14.6 41,11.2 29.4,7.8 23.8,1.6 q -5.6,-6 -7.4,-14.2 -1.6,-8.4 -1.6,-18 0,-16 0.8,-36.6 1,-20.6 2.4,-44.2 1.6,-23.8 3.4,-49.2 l 36.4,3.6 q -2,15.4 -3.6,31.6 -1.4,16 -2.4,31.2 -1,15.2 -1.6,27.6 -0.6,12.4 -1,20.8 -0.2,8.2 -0.2,10.6 0,7 1.6,10.6 1.6,3.4 6.4,4.6 4.8,1.2 14,1.2 11.6,0 26.2,-1.4 14.6,-1.6 29.6,-4.6 15,-3 27.4,-7.2 L 162,2.4 q -13.6,3.4 -29.4,6.2 -15.6,2.8 -31.2,4.4 -15.6,1.6 -29,1.6 z"
           id="text10"
           class="cls-1"
           style="font-size:200px;font-family:MochiyPopOne-Regular, 'Mochiy Pop One';fill:#f16060"
           transform="rotate(65.51,50.865824,1416.8375)"
           aria-label="L" />
        <path
           d="M 54,16.4 Q 41.2,16.4 32.8,11.8 24.6,7.4 19.6,-0.4 14.8,-8.2 12.4,-17.8 10.2,-27.6 9.4,-38 8.8,-48.6 8.8,-58.4 q 0,-11.2 0.6,-22.8 0.8,-11.6 1.6,-25.4 l 36.6,-2.2 q -0.6,4.2 -1.8,12.6 -1.2,8.4 -2.2,19.2 -1,10.8 -1,22.6 0,19.4 3.4,28.8 3.4,9.2 10.2,9.2 13.6,0 20,-19.8 6.4,-19.8 6.4,-62.6 v -9.2 l 17,-0.4 20.6,-0.4 q -2.8,18.8 -4.2,34.6 -1.4,15.8 -1.8,26.6 -0.4,10.6 -0.4,14.2 0,9.2 1.6,13.2 1.6,3.8 5.6,3.8 2,0 4.4,-0.8 2.4,-0.8 5.6,-2.8 l -1.4,34.4 q -7.6,1.2 -13.2,1.2 -9.6,0 -15.8,-3.6 Q 94.6,8.4 91,2.4 84.8,9 75.6,12.6 66.6,16.4 54,16.4 Z"
           id="text11"
           class="cls-1"
           style="font-size:200px;font-family:MochiyPopOne-Regular, 'Mochiy Pop One';fill:#f16060"
           transform="rotate(77.1,109.7097,1332.9655)"
           aria-label="u" />
        <path
           d="M 8.8,15.6 Q 9.6,-1 10,-17.6 q 0.4,-16.6 0.4,-32.8 -0.2,-14.8 -0.6,-29.2 -0.2,-14.6 -1,-28.2 l 33.6,-1 q 0.2,7.4 0.6,15.2 6.4,-8 14.8,-12.8 8.6,-5 19.6,-5 4.2,0 10.8,1.2 6.6,1.2 13.4,4.6 l -3.8,33.8 q -5,-3 -10.8,-4.2 -5.6,-1.4 -9.4,-1.4 -12.8,0 -21.8,11.6 -8.8,11.4 -12,31.8 0,14 -0.4,26.8 -0.2,12.6 -1,22.8 z"
           id="text12"
           class="cls-1"
           style="font-size:200px;font-family:MochiyPopOne-Regular, 'Mochiy Pop One';fill:#f16060"
           transform="rotate(86.33,142.68376,1282.1087)"
           aria-label="r" />
        <path
           d="M 60,15.8 Q 49.6,15.8 39.6,12.2 29.8,8.6 21.8,1 14,-6.4 9.4,-17.6 4.8,-29 4.8,-44.2 q 0,-17.2 5.2,-29.6 5.4,-12.6 14.2,-20.6 8.8,-8.2 19.6,-12.2 10.8,-4 21.6,-4 6.4,0 12.2,1 5.8,0.8 10.8,2.4 0.6,-14.6 1.4,-29.4 1,-14.8 2.2,-29.2 l 33.6,2.2 q -1.6,16.6 -2.8,35.8 -1.2,19 -1.8,38.8 -0.4,19.8 -0.4,38.6 0,17.6 0.4,33.6 0.6,15.8 1.4,28.8 L 87.8,14.6 Q 87.6,10.8 87.6,7.2 81.8,11 74.8,13.4 68,15.8 60,15.8 Z M 37,-46 q 0,10.4 4,16.4 4,5.8 9.8,8.2 5.8,2.4 11.2,2.4 6.4,0 12.8,-2.8 6.4,-2.8 12,-9.8 0,-2.4 0,-4.6 0,-16.2 0.4,-33.2 -9.4,-8.2 -20.4,-8.2 -4.6,0 -9.8,1.4 -5.2,1.4 -9.8,5 -4.4,3.4 -7.4,9.6 -2.8,6 -2.8,15.6 z"
           id="text13"
           class="cls-1"
           style="font-size:200px;font-family:MochiyPopOne-Regular, 'Mochiy Pop One';fill:#f16060"
           transform="rotate(95.32,185.34755,1223.5078)"
           aria-label="d" />
        <path
           d="M 70,16 Q 50.8,16 36.2,8.4 21.8,1 13.6,-12.4 q -8,-13.4 -8,-31 0,-10.6 3.6,-22.2 3.6,-11.8 11.6,-22 8,-10.2 21,-16.6 13.2,-6.4 32,-6.4 13.6,0 22.8,3 9.4,3 15.2,7.8 6,4.8 9,10.2 3.2,5.4 4.2,10.4 1.2,4.8 1.2,8 0,19.4 -16.4,30 -16.2,10.4 -46,10.4 -6.8,0 -13,-0.6 -6,-0.6 -11.2,-1.4 3.8,10 12.6,14.8 8.8,4.6 18.2,4.6 13.6,0 24,-4.8 10.4,-5 19.6,-15.2 l 17.8,25.6 Q 125.4,-2.6 117.4,3 109.6,8.6 98.2,12.2 86.8,16 70,16 Z m 4.4,-96.6 q -11.8,0 -20.8,6 -9,6 -13.2,15.8 5,0.8 9.8,1.4 5,0.4 9.8,0.4 4.4,0 10,-0.8 5.8,-0.8 11.2,-2.4 5.6,-1.6 9.2,-4 3.6,-2.6 3.6,-6 0,-1.6 -1.6,-4 -1.6,-2.4 -5.8,-4.4 -4.2,-2 -12.2,-2 z"
           id="text14"
           class="cls-1"
           style="font-size:200px;font-family:MochiyPopOne-Regular, 'Mochiy Pop One';fill:#f16060"
           transform="rotate(105.69,220.71588,1173.1689)"
           aria-label="e" />
        <path
           d="M 68.4,16.6 Q 54.8,16.6 43.2,13.4 31.6,10.2 22.2,5.2 12.8,0.2 5.4,-5.4 l 18,-29 q 8.4,7.8 16.2,12 7.8,4.2 16.2,5.8 8.6,1.6 18.6,1.6 8.6,0 13.8,-2.2 5.2,-2.4 5.2,-6 0,-3 -5,-4.6 -5,-1.8 -12.8,-3 -7.8,-1.4 -16.4,-3.4 Q 47,-37.4 36.4,-41.6 25.8,-45.8 19.2,-53 q -6.4,-7.2 -6.4,-19.2 0,-9.6 4.6,-16.8 4.6,-7.4 12.2,-12.2 7.8,-5 17.6,-7.4 9.8,-2.4 20.2,-2.4 18,0 31,4.4 13.2,4.2 25.2,11.2 l -18.2,27.6 Q 99.4,-72 91.6,-75 84,-78.2 76.2,-79.8 68.6,-81.6 62,-81.6 q -7.2,0 -11.4,2.2 -4,2.2 -4,6.2 0,2.4 5,4.6 5.2,2 19.6,5.4 8.6,2 18.2,4.2 9.6,2 18,5.8 8.6,3.6 13.8,10.6 5.4,6.8 5.4,18.2 0,19.2 -15.4,30 -15.4,11 -42.8,11 z"
           id="text15"
           class="cls-1"
           style="font-size:200px;font-family:MochiyPopOne-Regular, 'Mochiy Pop One';fill:#f16060"
           transform="rotate(116.04,248.7201,1131.5036)"
           aria-label="s" />
      </g>
    </g>
  </g>
</svg>
