<?xml version="1.0" encoding="UTF-8" standalone="no"?>
<!-- Created with Inkscape (http://www.inkscape.org/) -->

<svg
   width="2048"
   height="2048"
   viewBox="0 0 541.86666 541.86666"
   version="1.1"
   id="svg1"
   inkscape:version="1.3 (0e150ed6c4, 2023-07-21)"
   sodipodi:docname="skylineMask.svg"
   xmlns:inkscape="http://www.inkscape.org/namespaces/inkscape"
   xmlns:sodipodi="http://sodipodi.sourceforge.net/DTD/sodipodi-0.dtd"
   xmlns="http://www.w3.org/2000/svg"
   xmlns:svg="http://www.w3.org/2000/svg">
  <sodipodi:namedview
     id="namedview1"
     pagecolor="#505050"
     bordercolor="#eeeeee"
     borderopacity="1"
     inkscape:showpageshadow="0"
     inkscape:pageopacity="0"
     inkscape:pagecheckerboard="0"
     inkscape:deskcolor="#505050"
     inkscape:document-units="mm"
     inkscape:zoom="0.18106587"
     inkscape:cx="452.87386"
     inkscape:cy="687.59507"
     inkscape:window-width="1920"
     inkscape:window-height="1009"
     inkscape:window-x="-8"
     inkscape:window-y="-8"
     inkscape:window-maximized="1"
     inkscape:current-layer="layer1" />
  <defs
     id="defs1" />
  <g
     inkscape:label="Layer 1"
     inkscape:groupmode="layer"
     id="layer1"
     transform="translate(292.36458,75.670834)">
    <g
       id="Layer_2-2"
       data-name="Layer_2"
       transform="matrix(0.17699847,0,0,0.17699844,-292.36457,250.08782)"
       style="fill:#ffffff">
      <path
         class="cls-1"
         d="m 3051.76,327.03 v -98.9 l -64.88,-5.93 v 95.74 h -10.29 v -42.73 c 0,0 -10.29,-9.89 -32.04,-9.89 -21.75,0 -32.04,9.89 -32.04,9.89 v 20.57 h -10.29 V 171.96 h -74.77 v 142.81 h -21.36 v -77.14 l -43.91,-19.78 -43.91,19.78 v 60.92 l -85.85,-0.59 c 0,-15.63 -35.9,-17.6 -35.9,-17.6 h -1.47 l -45.57,-124.75 30.59,-85.19 -21.89,14.51 -6.07,25.85 h -27.96 l -6.07,-25.85 -21.89,-14.51 30.59,85.19 -45.57,124.75 H 2317.9 v -4.22 h -17.67 V 135.3 h -80.7 v 137.67 h -12.92 v -40.9 l -25.85,-3.41 v -9.76 l -68.04,-8.97 v 103.65 h -20.04 V 175.12 h -23.74 v -8.7 h -31.12 v 8.7 h -23.74 v 123.69 h -9.76 v -16.62 h -35.08 l -28.22,28.22 V 111.82 h -67.52 v 106.81 h -6.07 v 105.76 h -16.35 V 142.41 h -65.41 v 111.03 h -9.23 v 69.1 h -12.66 v -35.08 h -6.33 v -80.44 h -10.29 l -21.63,-13.71 -21.63,13.71 h -10.29 v 94.68 h -14.77 V 128.16 h -67.52 v 84.92 c -20.04,-93.1 -21.1,-213.1 -21.1,-213.1 0,0 -1.05,120 -21.1,213.1 h -23.74 v -20.04 h -6.29 v -50.11 h -8.44 v -4.22 h -19.03 l -31.12,136.62 h -10.55 v -98.14 h -56.97 v 73.09 h -4.22 c 0,0 -16.22,-37.58 -16.22,-65.27 v -45.1 h 4.15 v -6.33 h -4.15 v -9.69 l -4.55,-19.78 -4.55,19.78 v 9.69 h -4.15 v 6.33 h 4.15 v 45.1 c 0,27.69 -16.22,65.27 -16.22,65.27 h -12.07 v -85.06 h -47.47 v 8.9 h -8.51 v 123.82 h -17.01 V 102.73 h -70.22 v 212.04 h -18.79 v -23.93 h -23.34 V 136.75 l -39.36,-5.74 -39.36,5.74 v 162.59 c 0,0 -8.31,-18.4 -35.21,-18.4 -26.9,0 -35.21,18.4 -35.21,18.4 h -10.09 v 26.31 H 989.61 V 178.49 h -14.44 v -8.7 h -51.03 v 8.7 H 909.7 v 127.58 h -16.42 v -31.65 h -67.85 v -41.93 l -24.53,-51.03 -24.53,51.03 v 99.1 h -14.84 c -1.98,0 0,-85.85 0,-85.85 h -63.89 v 53.01 H 674.1 V 179.48 h -74.37 v 140.04 h -19.19 v -45.1 h -5.93 v -11.08 h -5.54 v -77.93 h -3.56 v -36.4 h -3.96 l -11.87,-60.53 -11.87,60.53 h -3.96 v 50.84 l -17.6,-11.67 v -6.92 l -5.44,-5.44 -5.44,5.44 v 6.92 l -17.6,11.67 v -50.84 h -3.96 l -11.87,-60.53 -11.87,60.53 h -3.96 v 36.4 h -3.56 v 77.93 h -5.54 v 11.08 h -5.93 v 45.1 h -27.3 v -11.87 h -17.41 v -28.88 h -14.64 v -63.69 l -23.34,3.56 v -8.31 l -43.12,5.93 v 106.42 h -13.85 v -17.8 h -9.89 V 157.72 H 209.24 V 325.06 H 196.98 V 223.79 h -16.22 v -9.49 h -38.37 v 7.91 h -12.66 v 85.05 H 110.35 V 285.9 H 93.73 V 183.83 H 82.65 c 0,0 -10.29,-9.1 -25.32,-9.1 -15.03,0 -25.32,9.1 -25.32,9.1 H 20.93 V 325.06 H 0 v 895.9 H 3061.42 V 327.03 h -9.65 z M 521.28,320.31 h -20.77 v -18.4 l 10.38,-11.47 10.38,11.47 v 18.4 z m -10.38,-54.4 c -6.77,0 -12.26,-5.49 -12.26,-12.26 0,-6.77 5.49,-12.26 12.26,-12.26 6.77,0 12.26,5.49 12.26,12.26 0,6.77 -5.49,12.26 -12.26,12.26 z m -19.49,-30.46 19.48,-29.47 19.48,29.47 H 491.4 Z m 1978.16,76.81 H 2327.94 V 296.7 h -9.23 v -6.07 h 158.76 z m 110.53,-14.3 h -32.73 c -16.22,0 -20.31,-7.32 -20.31,-7.32 h 51.02 l 2.01,7.32 z m -41.96,-180.07 h 11.08 l -9.19,36.47 h -3.78 l -9.19,-36.47 z m -5.54,47.47 h 11.08 l 31.59,114.99 h -74.25 l 31.59,-114.99 z m -40.35,146.9 5.94,-21.64 h 0.04 c 0,0 13.14,0.01 13.14,0.01 0,0 9,14.64 20.77,14.64 0,0 49.97,0 49.97,0 l 1.92,6.99 z m 106.5,-21.77 v 0 c 0,0 0,0 0,0 4.49,-0.12 14.78,0.45 21.8,7.46 0,0 -19.07,0 -19.07,0 z m 93.01,37.73 -35.21,0.4 -26.51,-16.35 h -23.34 l -2.55,-6.99 h 87.61 v 22.95 z"
         id="path1"
         style="fill:#ffffff" />
    </g>
  </g>
</svg>
