<?xml version="1.0" encoding="UTF-8"?>
<svg id="Layer_2" xmlns="http://www.w3.org/2000/svg" viewBox="0 0 1122.8 871">
  <defs>
    <style>
      .cls-1, .cls-2 {
        fill: #5c4c52;
      }

      .cls-2 {
        font-family: MochiyPopOne-Regular, 'Mochiy Pop One';
        font-size: 246.67px;
      }
    </style>
  </defs>
  <g id="Layer_2-2" data-name="Layer_2">
    <g>
      <text class="cls-2" transform="translate(0 502.23)"><tspan x="0" y="0">Caso de</tspan><tspan x="83.25" y="296">Polícia</tspan></text>
      <g>
        <g>
          <path class="cls-1" d="M405.07,179.15c-3.99.61-7.97,1.23-11.95,1.87.63,3.86,1.26,7.73,1.89,11.59,3.94-.64,7.87-1.25,11.82-1.85-.58-3.87-1.17-7.74-1.75-11.61Z"/>
          <path class="cls-1" d="M418.65,189.05c-3.95.55-7.89,1.12-11.83,1.71.58,3.87,1.17,7.74,1.75,11.61,3.9-.58,7.8-1.15,11.7-1.7-.54-3.88-1.08-7.76-1.62-11.63Z"/>
          <path class="cls-1" d="M429.01,175.82c-4,.51-7.99,1.04-11.98,1.6.54,3.88,1.08,7.76,1.62,11.63,3.95-.54,7.89-1.07,11.85-1.58-.49-3.88-.99-7.77-1.48-11.65Z"/>
          <path class="cls-1" d="M442.35,186.03c-3.96.46-7.91.94-11.86,1.44.49,3.88.99,7.77,1.48,11.65,3.91-.49,7.81-.97,11.72-1.42-.45-3.89-.9-7.78-1.35-11.67Z"/>
          <path class="cls-1" d="M453.01,173.04c-4,.42-8.01.86-12.01,1.32.45,3.89.9,7.78,1.35,11.67,3.95-.45,7.91-.89,11.87-1.3-.4-3.89-.81-7.79-1.21-11.68Z"/>
          <path class="cls-1" d="M466.11,183.56c-3.96.37-7.92.76-11.88,1.17.4,3.89.81,7.79,1.21,11.68,3.91-.4,7.83-.79,11.75-1.15-.36-3.9-.72-7.8-1.08-11.7Z"/>
          <path class="cls-1" d="M477.05,170.82c-4.01.33-8.02.67-12.03,1.04.36,3.9.72,7.8,1.08,11.7,3.96-.36,7.93-.71,11.89-1.03-.32-3.9-.63-7.8-.95-11.71Z"/>
          <path class="cls-1" d="M489.9,181.64c-3.97.28-7.93.58-11.9.89.32,3.9.63,7.8.95,11.71,3.92-.31,7.84-.61,11.76-.88-.27-3.91-.54-7.81-.81-11.72Z"/>
          <path class="cls-1" d="M501.13,169.16c-4.02.23-8.03.49-12.04.76.27,3.91.54,7.81.81,11.72,3.97-.27,7.94-.52,11.91-.75-.23-3.91-.45-7.82-.68-11.73Z"/>
          <path class="cls-1" d="M632.91,181.64c-3.97-.27-7.94-.52-11.91-.75-.23,3.91-.45,7.82-.68,11.73,3.93.23,7.85.48,11.77.75.27-3.91.54-7.81.81-11.72Z"/>
          <path class="cls-1" d="M645.75,170.82c-4.01-.32-8.02-.62-12.03-.9-.27,3.91-.54,7.81-.81,11.72,3.97.28,7.93.58,11.9.89.32-3.9.63-7.8.94-11.71Z"/>
          <path class="cls-1" d="M656.7,183.56c-3.96-.36-7.93-.71-11.89-1.03-.32,3.9-.63,7.8-.95,11.71,3.92.32,7.84.66,11.76,1.02.36-3.9.72-7.8,1.08-11.7Z"/>
          <path class="cls-1" d="M669.79,173.04c-4-.41-8.01-.81-12.02-1.18-.36,3.9-.72,7.8-1.08,11.7,3.96.37,7.92.76,11.88,1.17.4-3.89.81-7.79,1.21-11.68Z"/>
          <path class="cls-1" d="M680.45,186.03c-3.95-.45-7.91-.89-11.87-1.3-.4,3.89-.81,7.79-1.21,11.68,3.91.41,7.83.84,11.74,1.29.45-3.89.9-7.78,1.35-11.67Z"/>
          <path class="cls-1" d="M693.79,175.82c-4-.5-7.99-.99-11.99-1.46-.45,3.89-.9,7.78-1.35,11.67,3.96.46,7.91.94,11.86,1.44.49-3.88.99-7.77,1.48-11.65Z"/>
          <path class="cls-1" d="M704.15,189.05c-3.95-.55-7.89-1.07-11.85-1.58-.49,3.88-.99,7.77-1.48,11.65,3.91.5,7.81,1.02,11.71,1.56.54-3.88,1.08-7.76,1.62-11.63Z"/>
          <path class="cls-1" d="M717.74,179.15c-3.99-.6-7.97-1.18-11.97-1.73-.54,3.88-1.08,7.76-1.62,11.63,3.95.55,7.89,1.12,11.83,1.71.58-3.87,1.17-7.74,1.75-11.61Z"/>
          <path class="cls-1" d="M727.8,192.61c-3.94-.64-7.87-1.25-11.82-1.85-.58,3.87-1.17,7.74-1.75,11.61,3.9.59,7.79,1.2,11.68,1.83.63-3.86,1.26-7.73,1.89-11.59Z"/>
          <path class="cls-1" d="M513.72,180.27c-3.97.19-7.94.39-11.91.62.23,3.91.45,7.82.68,11.73,3.92-.22,7.85-.43,11.78-.61-.18-3.91-.36-7.82-.54-11.73Z"/>
          <path class="cls-1" d="M525.23,168.05c-4.02.14-8.04.3-12.05.49.18,3.91.36,7.82.54,11.73,3.97-.18,7.94-.34,11.92-.48-.14-3.91-.27-7.83-.41-11.74Z"/>
          <path class="cls-1" d="M537.55,179.44c-3.97.1-7.95.21-11.92.34.14,3.91.27,7.83.41,11.74,3.93-.13,7.86-.25,11.79-.34-.09-3.91-.18-7.83-.27-11.74Z"/>
          <path class="cls-1" d="M549.34,167.49c-4.02.05-8.04.12-12.06.21.09,3.91.18,7.83.27,11.74,3.97-.09,7.95-.16,11.92-.21-.05-3.91-.09-7.83-.14-11.74Z"/>
          <path class="cls-1" d="M561.4,179.17c-3.98,0-7.95.03-11.92.07.05,3.91.09,7.83.14,11.74,3.93-.04,7.86-.06,11.79-.07,0-3.92,0-7.83,0-11.75Z"/>
          <path class="cls-1" d="M573.46,167.49c-4.02-.04-8.04-.07-12.06-.07,0,3.92,0,7.83,0,11.75,3.97,0,7.95.03,11.92.07.05-3.91.09-7.83.14-11.74Z"/>
          <path class="cls-1" d="M585.25,179.44c-3.97-.09-7.95-.16-11.92-.21-.05,3.91-.09,7.83-.14,11.74,3.93.05,7.86.12,11.79.2.09-3.91.18-7.83.27-11.74Z"/>
          <path class="cls-1" d="M597.57,168.05c-4.02-.14-8.04-.25-12.06-.35-.09,3.91-.18,7.83-.27,11.74,3.97.1,7.95.21,11.92.34.14-3.91.27-7.83.41-11.74Z"/>
          <path class="cls-1" d="M609.09,180.27c-3.97-.18-7.94-.34-11.92-.48-.14,3.91-.27,7.83-.41,11.74,3.93.14,7.86.3,11.78.47.18-3.91.36-7.82.54-11.73Z"/>
          <path class="cls-1" d="M621.67,169.16c-4.01-.23-8.03-.44-12.05-.62-.18,3.91-.36,7.82-.54,11.73,3.97.19,7.94.39,11.91.62.23-3.91.45-7.82.68-11.73Z"/>
        </g>
        <path class="cls-1" d="M561.4,0c-154.85,0-209.9,90.13-200.95,103.69l24.9,75.47v38c-.1,15.92,10.15,30.06,25.31,34.92,48.71,15.7,99.56,23.76,150.74,23.89,51.18-.12,102.03-8.17,150.74-23.87,15.17-4.86,25.42-19,25.31-34.93v-38l24.9-75.46c8.96-13.56-46.09-103.7-200.95-103.7ZM561.4,24.17c27.98,0,50.67,22.68,50.67,50.67s-22.68,50.67-50.67,50.67-50.67-22.68-50.67-50.67,22.68-50.67,50.67-50.67ZM725.84,201.5c-109.19-13.93-219.72-13.85-328.89.24v-19.47c108.79-19.06,220.07-19.14,328.89-.24v19.47Z"/>
      </g>
    </g>
  </g>
</svg>