<?xml version="1.0" encoding="UTF-8"?>
<svg id="Layer_2" xmlns="http://www.w3.org/2000/svg" viewBox="0 0 586.66 753.02">
  <defs>
    <style>
      .cls-1 {
        fill: #fff;
      }

      .cls-2 {
        fill: #5c4c52;
      }
    </style>
  </defs>
  <g id="Layer_2-2" data-name="Layer_2">
    <path class="cls-1" d="M397.64,435.13h115.06c40.85,0,73.96-33.11,73.96-73.96V73.96c0-40.85-33.11-73.96-73.96-73.96H73.96C33.11,0,0,33.11,0,73.96v287.21c0,40.85,33.11,73.96,73.96,73.96h277"/>
    <polyline class="cls-1" points="350.96 435.13 408.34 526.23 307.29 753.02 448.76 529.12 397.64 435.13"/>
    <g>
      <path class="cls-2" d="M183.1,186.88h-60.31c-5.63,0-10.05,4.42-10.05,10.05v160.83c0,5.63,4.42,10.05,10.05,10.05h60.31c5.63,0,10.05-4.42,10.05-10.05v-160.83c0-5.63-4.42-10.05-10.05-10.05Z"/>
      <path class="cls-2" d="M473.92,205.93c0-16.38-11.25-32.96-32.73-32.96h-97.39c13.91-24.89,18-59.89,8.33-85.5-7.1-18.84-20.68-29.83-38.25-30.95l-.28-.02c-11.43-.7-21.33,7.86-22.28,19.28-2.5,25.4-13.63,70.33-29.59,86.28-13.43,13.43-24.93,19.06-43.98,28.37-2.76,1.35-5.77,2.82-8.96,4.41.06.69.09,1.38.09,2.09v159.19c2.3.79,4.57,1.57,6.8,2.34,31.45,10.84,58.63,20.2,100.18,20.2h78.73c21.49,0,32.73-16.58,32.73-32.96,0-4.86-.99-9.73-2.94-14.2,7.16-1.29,13.42-4.73,18.06-10,5.27-5.99,8.17-13.94,8.17-22.4,0-4.84-.99-9.72-2.93-14.17,17.25-2.98,26.23-17.78,26.23-32.42,0-8.49-3.02-17.04-8.92-23.29,5.89-6.26,8.92-14.81,8.92-23.3Z"/>
    </g>
  </g>
</svg>