<?xml version="1.0" encoding="UTF-8"?>
<svg id="Layer_2" xmlns="http://www.w3.org/2000/svg" viewBox="0 0 160.84 143.48">
  <defs>
    <style>
      .cls-1 {
        fill: #f2eabe;
      }
    </style>
  </defs>
  <g id="Layer_2-2" data-name="Layer_2">
    <g>
      <path class="cls-1" d="M31.33,58.08H4.48c-2.51,0-4.48,1.97-4.48,4.48v71.62c0,2.51,1.97,4.48,4.48,4.48h26.86c2.51,0,4.47-1.97,4.47-4.48V62.55c0-2.51-1.97-4.48-4.47-4.48Z"/>
      <path class="cls-1" d="M160.84,66.56c0-7.29-5.01-14.68-14.57-14.68h-43.37c6.2-11.08,8.02-26.67,3.71-38.07C103.44,5.42,97.4.53,89.58.03h-.13c-5.09-.32-9.5,3.49-9.92,8.57-1.11,11.31-6.07,31.32-13.17,38.42-5.98,5.98-11.1,8.49-19.59,12.64-1.23.6-2.57,1.26-3.99,1.96.03.31.04.61.04.93v70.89c1.02.35,2.04.7,3.03,1.04,14.01,4.83,26.11,8.99,44.61,8.99h35.06c9.57,0,14.57-7.38,14.57-14.68,0-2.16-.44-4.33-1.31-6.32,3.19-.57,5.98-2.11,8.04-4.45,2.35-2.67,3.64-6.21,3.64-9.98,0-2.16-.44-4.33-1.31-6.31,7.68-1.33,11.68-7.92,11.68-14.44,0-3.78-1.35-7.59-3.97-10.37,2.62-2.79,3.97-6.6,3.97-10.38Z"/>
    </g>
  </g>
</svg>