<?xml version="1.0" encoding="UTF-8"?>
<svg id="Layer_2" data-name="Layer 2" xmlns="http://www.w3.org/2000/svg" viewBox="0 0 1788.51 1651.31">
  <defs>
    <style>
      .cls-1 {
        fill: #8dbeb2;
        font-family: MochiyPopOne-Regular, 'Mochiy Pop One';
        font-size: 200px;
      }
    </style>
  </defs>
  <g id="Layer_2-2" data-name="Layer 2">
    <text class="cls-1" transform="translate(365.53 1161.56) rotate(-96.34)"><tspan x="0" y="0">G</tspan></text>
    <text class="cls-1" transform="translate(347.85 986.42) rotate(-82.86)"><tspan x="0" y="0">u</tspan></text>
    <text class="cls-1" transform="translate(366.96 854.91) rotate(-74.88)"><tspan x="0" y="0">i</tspan></text>
    <text class="cls-1" transform="translate(378.61 807.08) rotate(-68.83)"><tspan x="0" y="0">l</tspan></text>
    <text class="cls-1" transform="translate(408.19 725.13) rotate(-59.55)"><tspan x="0" y="0">h</tspan></text>
    <text class="cls-1" transform="translate(470.74 616.87) rotate(-48.39)"><tspan x="0" y="0">e</tspan></text>
    <text class="cls-1" transform="translate(559.02 519.13) rotate(-38.47)"><tspan x="0" y="0">r</tspan></text>
    <text class="cls-1" transform="translate(629.44 456.83) rotate(-26.57)"><tspan x="0" y="0">m</tspan></text>
    <text class="cls-1" transform="translate(786.87 379.79) rotate(-13.05)"><tspan x="0" y="0">e</tspan></text>
    <text class="cls-1" transform="translate(917.18 352.11) rotate(-5.68)"><tspan x="0" y="0"> </tspan></text>
    <text class="cls-1" transform="translate(957.4 343) rotate(3.22)"><tspan x="0" y="0">B</tspan></text>
    <text class="cls-1" transform="translate(1116.36 352.72) rotate(16)"><tspan x="0" y="0">o</tspan></text>
    <text class="cls-1" transform="translate(1243.26 388.47) rotate(27.48)"><tspan x="0" y="0">u</tspan></text>
    <text class="cls-1" transform="translate(1359.8 450.67) rotate(37.02)"><tspan x="0" y="0">l</tspan></text>
    <text class="cls-1" transform="translate(1430.67 501.11) rotate(46.62)"><tspan x="0" y="0">o</tspan></text>
    <text class="cls-1" transform="translate(1521.5 596.7) rotate(57.96)"><tspan x="0" y="0">s</tspan></text>
  </g>
</svg>