<?xml version="1.0" encoding="UTF-8" standalone="no"?>
<!-- Created with Inkscape (http://www.inkscape.org/) -->

<svg
   width="49.249542mm"
   height="37.962418mm"
   viewBox="0 0 49.249542 37.962418"
   version="1.1"
   id="svg1"
   inkscape:version="1.3 (0e150ed6c4, 2023-07-21)"
   sodipodi:docname="criminalidade.svg"
   xmlns:inkscape="http://www.inkscape.org/namespaces/inkscape"
   xmlns:sodipodi="http://sodipodi.sourceforge.net/DTD/sodipodi-0.dtd"
   xmlns="http://www.w3.org/2000/svg"
   xmlns:svg="http://www.w3.org/2000/svg">
  <sodipodi:namedview
     id="namedview1"
     pagecolor="#505050"
     bordercolor="#eeeeee"
     borderopacity="1"
     inkscape:showpageshadow="0"
     inkscape:pageopacity="0"
     inkscape:pagecheckerboard="0"
     inkscape:deskcolor="#505050"
     inkscape:document-units="mm"
     inkscape:zoom="0.72426347"
     inkscape:cx="133.92916"
     inkscape:cy="153.9495"
     inkscape:window-width="1920"
     inkscape:window-height="1009"
     inkscape:window-x="1912"
     inkscape:window-y="-8"
     inkscape:window-maximized="1"
     inkscape:current-layer="layer1" />
  <defs
     id="defs1" />
  <g
     inkscape:label="Layer 1"
     inkscape:groupmode="layer"
     id="layer1"
     transform="translate(-69.585417,-107.68542)">
    <g
       id="Layer_2-2"
       data-name="Layer_2"
       transform="matrix(0.26458333,0,0,0.26458333,69.585417,107.68542)"
       style="fill:#e3b366;fill-opacity:1">
      <g
         id="g3"
         style="fill:#e3b366;fill-opacity:1">
        <path
           class="cls-1"
           d="M 34.9,0 H 15.51 C 13.38,0 11.63,1.74 11.63,3.88 V 7.76 H 41.18 L 38.35,2.14 C 37.73,0.82 36.37,0.01 34.9,0.01 Z"
           id="path1"
           style="fill:#e3b366;fill-opacity:1" />
        <path
           class="cls-1"
           d="m 182.26,23.27 h -9.23 l -2.71,-5.39 -0.12,-0.23 c 0,0 0,-0.04 -0.04,-0.04 -0.16,-0.31 -0.35,-0.62 -0.58,-0.85 -0.19,-0.23 -0.43,-0.43 -0.66,-0.58 l -0.04,-0.04 c -0.12,-0.08 -0.27,-0.12 -0.39,-0.19 -0.16,-0.12 -0.39,-0.19 -0.58,-0.23 -0.04,-0.04 -0.08,-0.04 -0.16,-0.04 -0.31,-0.12 -0.66,-0.16 -1.01,-0.16 h -24.27 v 18.57 c 0,5.74 -4.69,10.43 -10.43,10.43 h -15.9 c -5.74,0 -10.43,-4.69 -10.43,-10.43 V 15.51 H 3.88 C 1.75,15.51 0,17.25 0,19.39 v 23.27 c 0,2.13 1.74,3.88 3.88,3.88 H 34.9 v 11.63 c 0,2.13 1.74,3.88 3.88,3.88 h 46.53 v 8.57 c 0,10.24 8.34,18.57 18.57,18.57 h 23.62 l 11.36,47.66 c 0.93,3.92 4.38,6.63 8.38,6.63 h 29.01 c 2.64,0 5.12,-1.2 6.75,-3.3 1.67,-2.06 2.25,-4.73 1.63,-7.33 L 167.76,62.04 h 14.5 c 2.13,0 3.88,-1.74 3.88,-3.88 V 27.14 c 0,-2.13 -1.74,-3.88 -3.88,-3.88 z m -78.37,58.16 c -5.97,0 -10.82,-4.85 -10.82,-10.82 v -8.57 h 24.43 c -2.37,3.49 -5.58,6.82 -8.65,6.63 -2.09,-0.12 -3.99,1.47 -4.15,3.61 -0.16,2.13 1.47,3.99 3.61,4.15 0.27,0 0.58,0.04 0.85,0.04 5.7,0 10.24,-3.96 13.38,-8.07 l 3.1,13.07 h -21.75 z"
           id="path2"
           style="fill:#e3b366;fill-opacity:1" />
        <path
           class="cls-1"
           d="m 113.46,34.09 c 0,1.47 1.2,2.64 2.64,2.64 h 15.94 c 1.47,0 2.64,-1.2 2.64,-2.64 V 15.51 h -21.25 v 18.57 h 0.04 z"
           id="path3"
           style="fill:#e3b366;fill-opacity:1" />
      </g>
    </g>
  </g>
</svg>
