<?xml version="1.0" encoding="UTF-8"?>
<svg id="Layer_2" xmlns="http://www.w3.org/2000/svg" viewBox="0 0 186.13 143.48">
  <defs>
    <style>
      .cls-1 {
        fill: #f2eabe;
      }
    </style>
  </defs>
  <g id="Layer_2-2" data-name="Layer_2">
    <g>
      <path class="cls-1" d="M34.9,0H15.51c-2.13,0-3.88,1.74-3.88,3.88v3.88h29.55l-2.83-5.62c-.62-1.32-1.98-2.13-3.45-2.13Z"/>
      <path class="cls-1" d="M182.26,23.27h-9.23l-2.71-5.39-.12-.23s0-.04-.04-.04c-.16-.31-.35-.62-.58-.85-.19-.23-.43-.43-.66-.58l-.04-.04c-.12-.08-.27-.12-.39-.19-.16-.12-.39-.19-.58-.23-.04-.04-.08-.04-.16-.04-.31-.12-.66-.16-1.01-.16h-24.27v18.57c0,5.74-4.69,10.43-10.43,10.43h-15.9c-5.74,0-10.43-4.69-10.43-10.43V15.51H3.88c-2.13,0-3.88,1.74-3.88,3.88v23.27c0,2.13,1.74,3.88,3.88,3.88h31.02v11.63c0,2.13,1.74,3.88,3.88,3.88h46.53v8.57c0,10.24,8.34,18.57,18.57,18.57h23.62l11.36,47.66c.93,3.92,4.38,6.63,8.38,6.63h29.01c2.64,0,5.12-1.2,6.75-3.3,1.67-2.06,2.25-4.73,1.63-7.33l-16.87-70.81h14.5c2.13,0,3.88-1.74,3.88-3.88v-31.02c0-2.13-1.74-3.88-3.88-3.88ZM103.89,81.43c-5.97,0-10.82-4.85-10.82-10.82v-8.57h24.43c-2.37,3.49-5.58,6.82-8.65,6.63-2.09-.12-3.99,1.47-4.15,3.61-.16,2.13,1.47,3.99,3.61,4.15.27,0,.58.04.85.04,5.7,0,10.24-3.96,13.38-8.07l3.1,13.07h-21.75v-.04Z"/>
      <path class="cls-1" d="M113.46,34.09c0,1.47,1.2,2.64,2.64,2.64h15.94c1.47,0,2.64-1.2,2.64-2.64V15.51h-21.25v18.57h.04Z"/>
    </g>
  </g>
</svg>