<?xml version="1.0" encoding="UTF-8"?>
<svg id="Layer_2" xmlns="http://www.w3.org/2000/svg" viewBox="0 0 82.92 181.54">
  <defs>
    <style>
      .cls-1 {
        fill: #f16060;
        fill-rule: evenodd;
      }
    </style>
  </defs>
  <g id="Layer_2-2" data-name="Layer_2">
    <path class="cls-1" d="M42.62,79.63c16.47,1.23,30.6,12.25,35.82,27.93,5.22,15.7.49,32.97-11.96,43.83-2.99,2.6-6.34,4.78-9.94,6.47v12.25-.02c-1.08,6.61-6.78,11.44-13.47,11.44s-12.39-4.83-13.48-11.44v-9.78c-13.6-3.31-24.55-13.42-28.91-26.73-1.13-3.38-.84-7.08.78-10.26,1.64-3.18,4.46-5.56,7.87-6.62,7.08-2.23,14.65,1.61,17.03,8.65,1.61,4.43,5.31,7.76,9.87,8.89,4.58,1.13,9.41-.08,12.89-3.24,4.22-3.7,5.8-9.58,4.02-14.89-1.77-5.32-6.57-9.06-12.17-9.48-16.54-1.18-30.75-12.22-35.97-27.96-5.22-15.75-.44-33.08,12.12-43.93,3.65-3.31,7.87-5.91,12.47-7.69v-11.17c-.64-3.95.47-7.99,3.06-11.05,2.6-3.06,6.4-4.83,10.43-4.83s7.82,1.77,10.41,4.83c2.6,3.06,3.72,7.1,3.06,11.05v10.71c12.39,3.97,22.12,13.62,26.19,25.95,1.12,6.66-2.82,13.13-9.24,15.22-6.42,2.09-13.4-.81-16.44-6.84-1.59-4.44-5.27-7.79-9.85-8.96-4.56-1.17-9.39.03-12.91,3.16-4.22,3.73-5.81,9.61-4.04,14.95,1.77,5.34,6.57,9.09,12.18,9.55h.19Z"/>
  </g>
</svg>