<?xml version="1.0" encoding="UTF-8"?>
<svg id="Layer_2" xmlns="http://www.w3.org/2000/svg" viewBox="0 0 1742.79 1639.92">
  <defs>
    <style>
      .cls-1 {
        fill: #8dbeb2;
        font-family: MochiyPopOne-Regular, 'Mochiy Pop One';
        font-size: 200px;
      }
    </style>
  </defs>
  <g id="Layer_2-2" data-name="Layer_2">
    <text class="cls-1" transform="translate(365.53 1150.17) rotate(-96.34)"><tspan x="0" y="0">G</tspan></text>
    <text class="cls-1" transform="translate(347.85 975.03) rotate(-82.86)"><tspan x="0" y="0">u</tspan></text>
    <text class="cls-1" transform="translate(363.81 844.7) rotate(-71.56)"><tspan x="0" y="0">s</tspan></text>
    <text class="cls-1" transform="translate(403.89 724.9) rotate(-61.19)"><tspan x="0" y="0">t</tspan></text>
    <text class="cls-1" transform="translate(455.81 626.46) rotate(-50.28)"><tspan x="0" y="0">a</tspan></text>
    <text class="cls-1" transform="translate(544.17 519.21) rotate(-38.25)"><tspan x="0" y="0">v</tspan></text>
    <text class="cls-1" transform="translate(650.6 434.7) rotate(-26.46)"><tspan x="0" y="0">o</tspan></text>
    <text class="cls-1" transform="translate(771.47 377.68) rotate(-18.77)"><tspan x="0" y="0"> </tspan></text>
    <text class="cls-1" transform="translate(808.92 360.17) rotate(-10.33)"><tspan x="0" y="0">D</tspan></text>
    <text class="cls-1" transform="translate(958.82 333.17) rotate(2.11)"><tspan x="0" y="0">o</tspan></text>
    <text class="cls-1" transform="translate(1090.54 337.38) rotate(13.68)"><tspan x="0" y="0">u</tspan></text>
    <text class="cls-1" transform="translate(1218.23 368.16) rotate(24.89)"><tspan x="0" y="0">c</tspan></text>
    <text class="cls-1" transform="translate(1332.06 419.96) rotate(36.04)"><tspan x="0" y="0">e</tspan></text>
    <text class="cls-1" transform="translate(1438.32 496.79) rotate(47.27)"><tspan x="0" y="0">s</tspan></text>
  </g>
</svg>