<?xml version="1.0" encoding="UTF-8"?>
<svg id="Layer_2" xmlns="http://www.w3.org/2000/svg" viewBox="0 0 1795.7 1861.78">
  <defs>
    <style>
      .cls-1 {
        fill: #f16060;
        font-family: MochiyPopOne-Regular, 'Mochiy Pop One';
        font-size: 200px;
      }
    </style>
  </defs>
  <g id="Layer_2-2" data-name="Layer_2">
    <text class="cls-1" transform="translate(436.38 493.06) rotate(-15.51)"><tspan x="0" y="0">R</tspan></text>
    <text class="cls-1" transform="translate(597.62 449.53) rotate(-3.45)"><tspan x="0" y="0">e</tspan></text>
    <text class="cls-1" transform="translate(730.57 443.97) rotate(3.93)"><tspan x="0" y="0">i</tspan></text>
    <text class="cls-1" transform="translate(779.32 444.42) rotate(11.21)"><tspan x="0" y="0">n</tspan></text>
    <text class="cls-1" transform="translate(906.7 468.59) rotate(22)"><tspan x="0" y="0">a</tspan></text>
    <text class="cls-1" transform="translate(1036.13 522.71) rotate(31.13)"><tspan x="0" y="0">l</tspan></text>
    <text class="cls-1" transform="translate(1111.94 566.29) rotate(39.76)"><tspan x="0" y="0">d</tspan></text>
    <text class="cls-1" transform="translate(1209.35 646.24) rotate(50.24)"><tspan x="0" y="0">o</tspan></text>
    <text class="cls-1" transform="translate(1293.02 750.88) rotate(57.38)"><tspan x="0" y="0"> </tspan></text>
    <text class="cls-1" transform="translate(1319.15 783.22) rotate(65.51)"><tspan x="0" y="0">L</tspan></text>
    <text class="cls-1" transform="translate(1384.54 928.44) rotate(77.1)"><tspan x="0" y="0">u</tspan></text>
    <text class="cls-1" transform="translate(1413.03 1057.65) rotate(86.33)"><tspan x="0" y="0">r</tspan></text>
    <text class="cls-1" transform="translate(1420.77 1152.4) rotate(95.32)"><tspan x="0" y="0">d</tspan></text>
    <text class="cls-1" transform="translate(1409.86 1277.94) rotate(105.69)"><tspan x="0" y="0">e</tspan></text>
    <text class="cls-1" transform="translate(1374.55 1404.76) rotate(116.04)"><tspan x="0" y="0">s</tspan></text>
  </g>
</svg>