<?xml version="1.0" encoding="UTF-8"?>
<svg id="Layer_2" xmlns="http://www.w3.org/2000/svg" viewBox="0 0 586.66 753.02">
  <defs>
    <style>
      .cls-1 {
        fill: #fff;
      }

      .cls-2 {
        fill: #5c4c52;
        fill-rule: evenodd;
      }
    </style>
  </defs>
  <g id="Layer_2-2" data-name="Layer_2">
    <path class="cls-1" d="M397.64,435.13h115.06c40.85,0,73.96-33.11,73.96-73.96V73.96c0-40.85-33.11-73.96-73.96-73.96H73.96C33.11,0,0,33.11,0,73.96v287.21c0,40.85,33.11,73.96,73.96,73.96h277"/>
    <path class="cls-2" d="M99.2,98.04h72.78c-1,20.06-9.61,38.98-24.09,52.9-14.47,13.92-33.71,21.8-53.78,22.03v-69.83c.05-2.79,2.31-5.05,5.1-5.1h0ZM200.21,98.04h184.9c-.4,3.56-.5,7.16-.26,10.74,1.06,27.47,12.71,53.46,32.51,72.52,19.8,19.06,46.22,29.72,73.71,29.74.48.06.98.06,1.48,0v19.56-.02c-.68-.03-1.34-.03-2,0-27.85-.02-54.56,11.02-74.27,30.69-19.69,19.66-30.79,46.35-30.82,74.19v1.61h-187.02c.06-.68.06-1.34,0-2,.08-27.66-10.85-54.21-30.38-73.77-19.53-19.58-46.04-30.56-73.71-30.55h-.26v-29.59c27.56-.24,53.95-11.1,73.71-30.3s31.35-45.29,32.38-72.83h.01ZM412.59,98.04h74.87c2.79.05,5.05,2.31,5.1,5.1v80.04h-1.48c-19.84.05-38.95-7.43-53.48-20.95-14.53-13.51-23.37-32.05-24.74-51.84,0-1.61-.74-12.21-.48-12.21l.22-.15ZM492.55,257.98v73.88c.03,1.37-.48,2.69-1.45,3.68-.95.98-2.27,1.55-3.64,1.55h-74.4c.06-.55.06-1.08,0-1.61-.02-20.53,8.13-40.21,22.64-54.72,14.51-14.5,34.19-22.66,54.72-22.64.66.06,1.32.06,2,0l.13-.13ZM171.24,337.08h-72.04c-2.82,0-5.1-2.29-5.1-5.1v-73.53h.4c20.32-.03,39.82,8.03,54.19,22.42,14.39,14.37,22.45,33.87,22.42,54.21v2h.13ZM294.2,204.74c15.72,1.18,29.21,11.69,34.19,26.66,4.98,14.98.47,31.47-11.42,41.84-2.85,2.48-6.05,4.56-9.48,6.18v11.69-.02c-1.03,6.31-6.47,10.92-12.85,10.92s-11.82-4.61-12.87-10.92v-9.34c-12.98-3.16-23.43-12.81-27.59-25.51-1.08-3.23-.81-6.76.74-9.79,1.56-3.03,4.26-5.31,7.52-6.32,6.76-2.13,13.98,1.53,16.26,8.26,1.53,4.23,5.06,7.4,9.42,8.48,4.37,1.08,8.98-.08,12.31-3.1,4.03-3.53,5.53-9.14,3.84-14.21-1.69-5.08-6.27-8.64-11.61-9.05-15.79-1.13-29.35-11.66-34.34-26.69-4.98-15.03-.42-31.58,11.56-41.93,3.48-3.16,7.52-5.64,11.9-7.34v-10.66c-.61-3.77.45-7.63,2.92-10.55,2.48-2.92,6.11-4.61,9.95-4.61s7.47,1.69,9.93,4.61c2.48,2.92,3.55,6.77,2.92,10.55v10.23c11.82,3.79,21.11,13,25,24.77,1.06,6.35-2.69,12.53-8.82,14.53-6.13,2-12.79-.77-15.69-6.53-1.52-4.24-5.03-7.43-9.4-8.55-4.35-1.11-8.97.03-12.32,3.02-4.03,3.56-5.55,9.18-3.85,14.27,1.69,5.1,6.27,8.68,11.63,9.11h.18Z"/>
    <polyline class="cls-1" points="350.96 435.13 408.34 526.23 307.29 753.02 448.76 529.12 397.64 435.13"/>
  </g>
</svg>