<?xml version="1.0" encoding="UTF-8"?>
<svg id="Layer_2" xmlns="http://www.w3.org/2000/svg" viewBox="0 0 240.9 240.9">
  <defs>
    <style>
      .cls-1 {
        fill: #5c4c52;
      }
    </style>
  </defs>
  <g id="Layer_2-2" data-name="Layer_2">
    <g>
      <g>
        <rect class="cls-1" x="74.42" y="67.37" width="35.32" height="106.15"/>
        <rect class="cls-1" x="131.17" y="67.37" width="35.32" height="106.15"/>
      </g>
      <path class="cls-1" d="M120.45,240.9c-16.25,0-32.03-3.19-46.89-9.47-14.34-6.07-27.22-14.75-38.28-25.81-11.06-11.06-19.74-23.94-25.81-38.28C3.19,152.48,0,136.7,0,120.45s3.19-32.03,9.47-46.89c6.07-14.34,14.75-27.22,25.81-38.28,11.06-11.06,23.94-19.74,38.28-25.81C88.42,3.19,104.2,0,120.45,0s32.03,3.19,46.89,9.47c14.34,6.07,27.22,14.75,38.28,25.81,11.06,11.06,19.74,23.94,25.81,38.28,6.28,14.86,9.47,30.63,9.47,46.89s-3.19,32.03-9.47,46.89c-6.07,14.34-14.75,27.22-25.81,38.28-11.06,11.06-23.94,19.74-38.28,25.81-14.86,6.28-30.63,9.47-46.89,9.47ZM120.45,27.22c-51.4,0-93.23,41.82-93.23,93.23s41.82,93.23,93.23,93.23,93.23-41.82,93.23-93.23S171.85,27.22,120.45,27.22Z"/>
    </g>
  </g>
</svg>