<?xml version="1.0" encoding="UTF-8"?>
<svg id="Layer_2" xmlns="http://www.w3.org/2000/svg" viewBox="0 0 3061.42 1220.95">
  <defs>
    <style>
      .cls-1 {
        fill: #5c4c52;
      }
    </style>
  </defs>
  <g id="Layer_2-2" data-name="Layer_2">
    <path class="cls-1" d="M3051.76,327.03v-98.9l-64.88-5.93v95.74h-10.29v-42.73s-10.29-9.89-32.04-9.89-32.04,9.89-32.04,9.89v20.57h-10.29v-123.82h-74.77v142.81h-21.36v-77.14l-43.91-19.78-43.91,19.78v60.92l-85.85-.59c0-15.63-35.9-17.6-35.9-17.6h-1.47l-45.57-124.75,30.59-85.19-21.89,14.51-6.07,25.85h-27.96l-6.07-25.85-21.89-14.51,30.59,85.19-45.57,124.75h-163.31v-4.22h-17.67v-140.84h-80.7v137.67h-12.92v-40.9l-25.85-3.41v-9.76l-68.04-8.97v103.65h-20.04v-138.46h-23.74v-8.7h-31.12v8.7h-23.74v123.69h-9.76v-16.62h-35.08l-28.22,28.22V111.82h-67.52v106.81h-6.07v105.76h-16.35v-181.98h-65.41v111.03h-9.23v69.1h-12.66v-35.08h-6.33v-80.44h-10.29l-21.63-13.71-21.63,13.71h-10.29v94.68h-14.77v-173.54h-67.52v84.92c-20.04-93.1-21.1-213.1-21.1-213.1,0,0-1.05,120-21.1,213.1h-23.74v-20.04h-6.29v-50.11h-8.44v-4.22h-19.03l-31.12,136.62h-10.55v-98.14h-56.97v73.09h-4.22s-16.22-37.58-16.22-65.27v-45.1h4.15v-6.33h-4.15v-9.69l-4.55-19.78-4.55,19.78v9.69h-4.15v6.33h4.15v45.1c0,27.69-16.22,65.27-16.22,65.27h-12.07v-85.06h-47.47v8.9h-8.51v123.82h-17.01V102.73h-70.22v212.04h-18.79v-23.93h-23.34v-154.09l-39.36-5.74-39.36,5.74v162.59s-8.31-18.4-35.21-18.4-35.21,18.4-35.21,18.4h-10.09v26.31h-20.97v-147.16h-14.44v-8.7h-51.03v8.7h-14.44v127.58h-16.42v-31.65h-67.85v-41.93l-24.53-51.03-24.53,51.03v99.1h-14.84c-1.98,0,0-85.85,0-85.85h-63.89v53.01h-23.54v-119.27h-74.37v140.04h-19.19v-45.1h-5.93v-11.08h-5.54v-77.93h-3.56v-36.4h-3.96l-11.87-60.53-11.87,60.53h-3.96v50.84l-17.6-11.67v-6.92l-5.44-5.44-5.44,5.44v6.92l-17.6,11.67v-50.84h-3.96l-11.87-60.53-11.87,60.53h-3.96v36.4h-3.56v77.93h-5.54v11.08h-5.93v45.1h-27.3v-11.87h-17.41v-28.88h-14.64v-63.69l-23.34,3.56v-8.31l-43.12,5.93v106.42h-13.85v-17.8h-9.89v-147.16h-82.29v167.34h-12.26v-101.27h-16.22v-9.49h-38.37v7.91h-12.66v85.05h-19.38v-21.36h-16.62v-102.07h-11.08s-10.29-9.1-25.32-9.1-25.32,9.1-25.32,9.1h-11.08v141.23H0v895.9h3061.42V327.03h-9.65ZM521.28,320.31h-20.77v-18.4l10.38-11.47,10.38,11.47v18.4ZM510.9,265.91c-6.77,0-12.26-5.49-12.26-12.26s5.49-12.26,12.26-12.26,12.26,5.49,12.26,12.26-5.49,12.26-12.26,12.26ZM491.41,235.45l19.48-29.47,19.48,29.47h-38.97ZM2469.57,312.26h-141.63v-15.56h-9.23v-6.07h158.76l-7.9,21.63ZM2580.1,297.96h-32.73c-16.22,0-20.31-7.32-20.31-7.32h51.02l2.01,7.32ZM2538.14,117.89h11.08l-9.19,36.47h-3.78l-9.19-36.47h11.08ZM2532.6,165.36h11.08l31.59,114.99h-74.25l31.59-114.99ZM2492.25,312.26l5.94-21.64h.04s13.14.01,13.14.01c0,0,9,14.64,20.77,14.64,0,0,49.97,0,49.97,0l1.92,6.99h-91.78ZM2598.75,290.49h0s0,0,0,0c4.49-.12,14.78.45,21.8,7.46,0,0-19.07,0-19.07,0l-2.73-7.46h0ZM2691.76,328.22l-35.21.4-26.51-16.35h-23.34l-2.55-6.99h87.61v22.95Z"/>
  </g>
</svg>