<?xml version="1.0" encoding="UTF-8" standalone="no"?>
<!-- Created with Inkscape (http://www.inkscape.org/) -->

<svg
   width="292.45145mm"
   height="216.55006mm"
   viewBox="0 0 292.45145 216.55006"
   version="1.1"
   id="svg1"
   inkscape:version="1.3 (0e150ed6c4, 2023-07-21)"
   sodipodi:docname="titulo.svg"
   xmlns:inkscape="http://www.inkscape.org/namespaces/inkscape"
   xmlns:sodipodi="http://sodipodi.sourceforge.net/DTD/sodipodi-0.dtd"
   xmlns="http://www.w3.org/2000/svg"
   xmlns:svg="http://www.w3.org/2000/svg">
  <sodipodi:namedview
     id="namedview1"
     pagecolor="#505050"
     bordercolor="#eeeeee"
     borderopacity="1"
     inkscape:showpageshadow="0"
     inkscape:pageopacity="0"
     inkscape:pagecheckerboard="0"
     inkscape:deskcolor="#505050"
     inkscape:document-units="mm"
     inkscape:zoom="0.72426347"
     inkscape:cx="463.91957"
     inkscape:cy="562.64056"
     inkscape:window-width="1920"
     inkscape:window-height="1009"
     inkscape:window-x="1912"
     inkscape:window-y="-8"
     inkscape:window-maximized="1"
     inkscape:current-layer="layer1" />
  <defs
     id="defs1" />
  <g
     inkscape:label="Layer 1"
     inkscape:groupmode="layer"
     id="layer1"
     transform="translate(17.727084,0.26458333)">
    <g
       id="g33"
       transform="matrix(0.26458333,0,0,0.26458333,-20.468204,-0.26458333)">
      <g
         id="g32"
         style="font-size:246.67px;font-family:MochiyPopOne-Regular, 'Mochiy Pop One';fill:#5c4c52"
         transform="translate(0,502.23)">
        <path
           d="M 109.02814,19.7336 Q 78.934399,19.7336 56.7341,6.41342 34.5338,-6.66009 22.44697,-30.58708 10.36014,-54.51407 10.36014,-87.074509 q 0,-12.3335 2.96004,-27.380371 3.20671,-15.29354 10.11347,-30.34041 6.90676,-15.29354 18.50025,-27.87371 11.59349,-12.58017 28.367049,-20.22694 16.77356,-7.89344 39.467201,-7.89344 19.48693,0 34.04046,4.9334 14.55353,4.68673 25.16034,12.08683 10.60681,7.15343 17.51357,15.04687 7.15343,7.89344 11.34682,14.55353 4.19339,6.41342 6.16675,9.37346 l -35.76715,27.38037 q -5.42674,-10.11347 -12.82684,-19.7336 -7.4001,-9.8668 -18.25358,-16.28022 -10.85348,-6.41342 -26.88703,-6.41342 -16.526891,0 -27.380371,7.4001 -10.85348,7.4001 -17.266899,18.74692 -6.16675,11.34682 -8.63345,24.17366 -2.4667,12.580171 -2.4667,23.433651 0,11.59349 2.4667,22.940309 2.4667,11.34682 8.38678,20.72028 6.166749,9.37346 16.280219,15.04687 10.36014,5.42674 25.900351,5.42674 17.2669,0 28.12038,-6.16675 11.10015,-6.16675 18.50025,-17.2669 7.4001,-11.34682 13.81352,-26.393689 l 40.45388,18.253579 q -10.85348,22.44697 -24.42033,38.97386 -13.56685,16.52689 -31.82043,25.40701 -18.25358,8.88012 -43.16725,8.88012 z m 184.75588,-0.24667 q -18.50025,0 -33.54712,-9.6201301 Q 245.19003,0.49334 236.30991,-15.54021 q -8.63345,-16.28022 -8.63345,-36.26049 0,-18.746919 6.90676,-33.793789 6.90676,-15.293541 18.74692,-26.147021 12.08683,-10.85348 27.38037,-16.52689 15.29354,-5.92008 32.0671,-5.92008 14.06019,0 27.62704,3.94672 0.98668,-5.18007 1.72669,-10.36014 l 42.18057,7.15343 q -1.72669,4.68673 -3.45338,14.06019 -1.72669,9.37346 -2.96004,20.966951 -0.98668,11.59349 -1.72669,23.18698 -0.74001,11.593489 -0.74001,20.966949 0,7.64677 0.98668,15.04687 1.23335,7.15343 4.9334,11.84016 3.70005,4.44006 11.34682,4.44006 h 3.45338 l -6.16675,42.92058 q -16.28022,0 -26.88703,-5.67341 -10.60681,-5.4267401 -17.02023,-14.8002 -10.60681,11.84016 -24.17366,15.78688 -13.56685,4.19339 -28.12038,4.19339 z M 268.13034,-46.8673 q 1.23335,11.84016 9.62013,18.99359 8.63345,6.90676 21.70696,6.90676 12.58017,0 20.96695,-6.66009 8.38678,-6.90676 13.81352,-18.74692 -0.24667,-3.94672 -0.24667,-8.14011 0,-8.63345 0.49334,-17.760239 0.49334,-9.12679 1.23335,-18.00691 -10.36014,-3.94672 -21.70696,-3.94672 -13.32018,0 -23.92699,5.42674 -10.36014,5.18007 -16.28022,14.55353 -5.92008,9.373459 -5.92008,21.706959 0,1.48002 0,2.96004 0,1.48002 0.24667,2.71337 z m 216.08294,67.34091 q -16.77356,0 -31.08042,-3.94672 Q 438.826,12.58017 427.23251,6.41342 415.63902,0.24667 406.51223,-6.66009 l 22.2003,-35.76715 q 10.36014,9.62013 19.98027,14.8002 9.62013,5.18007 19.98027,7.15343 10.60681,1.97336 22.94031,1.97336 10.60681,0 17.02023,-2.71337 6.41342,-2.96004 6.41342,-7.4001 0,-3.70005 -6.16675,-5.67341 -6.16675,-2.22003 -15.78688,-3.70005 -9.62013,-1.72669 -20.22694,-4.19339 -15.04687,-3.94672 -28.12038,-9.12679 -13.07351,-5.18007 -21.21362,-14.06019 -7.89344,-8.880119 -7.89344,-23.680319 0,-11.840161 5.67341,-20.720281 5.67341,-9.12679 15.04687,-15.04687 9.62013,-6.16675 21.70696,-9.12679 12.08683,-2.96004 24.91367,-2.96004 22.2003,0 38.23385,5.42674 16.28022,5.18007 31.08042,13.81352 l -22.44697,34.040461 q -7.4001,-5.18007 -17.02023,-8.88012 -9.37346,-3.94672 -18.99359,-5.92008 -9.37346,-2.220031 -17.51357,-2.220031 -8.88012,0 -14.06019,2.713371 -4.9334,2.71337 -4.9334,7.64677 0,2.96004 6.16675,5.67341 6.41342,2.4667 24.17366,6.66009 10.60681,2.4667 22.44697,5.18007 11.84016,2.4667 22.2003,7.153429 10.60681,4.44006 17.02023,13.07351 6.66009,8.38678 6.66009,22.44697 0,23.68032 -18.99359,37.0004999 Q 518.00707,20.47361 484.21328,20.47361 Z m 164.0357,-0.24667 q -19.7336,0 -34.5338,-6.41342 -14.55353,-6.4134201 -24.17366,-17.51357 -9.62013,-11.34682 -14.30686,-25.90035 -4.68673,-14.55353 -4.68673,-30.58708 0,-16.280219 5.67341,-30.093739 5.92008,-14.060191 16.03355,-24.420331 10.36014,-10.36014 24.17366,-16.03355 13.81352,-5.92008 30.09374,-5.92008 17.02023,0 31.57376,5.92008 14.55353,5.92008 25.40701,16.52689 10.85348,10.60681 16.77356,24.913671 6.16675,14.30686 6.16675,31.080419 0,37.24717 -20.47361,57.96745 -20.47361,20.47361 -57.72078,20.47361 z m -0.24667,-39.96054 q 18.00691,0 27.38037,-10.11347 9.62013,-10.11347 9.62013,-29.10706 0,-17.020229 -10.36014,-27.380369 -10.36014,-10.36014 -27.1337,-10.36014 -10.11347,0 -18.50025,5.42674 -8.38678,5.18007 -13.56685,14.06019 -4.9334,8.63345 -4.9334,19.240259 0,9.37346 3.70005,18.25358 3.94672,8.88012 12.3335,14.55353 8.38678,5.42674 21.46029,5.42674 z m 216.3295,39.22053 q -12.82684,0 -25.16034,-4.44006 -12.08683,-4.44006 -21.95363,-13.81352 -9.62013,-9.1267899 -15.29354,-22.94031 -5.67341,-14.06019 -5.67341,-32.80711 0,-21.213619 6.41342,-36.507159 6.66009,-15.540211 17.51357,-25.407011 10.85348,-10.11347 24.17366,-15.04687 13.32018,-4.9334 26.64036,-4.9334 7.89344,0 15.04687,1.23335 7.15343,0.98668 13.32018,2.96004 0.74001,-18.00691 1.72669,-36.26049 1.23335,-18.25358 2.71337,-36.01382 l 41.44056,2.71337 q -1.97336,20.47361 -3.45338,44.15393 -1.48002,23.43365 -2.22003,47.85398 -0.49334,24.420331 -0.49334,47.60731 0,21.70696 0.49334,41.44056 0.74001,19.48693 1.72669,35.52048 l -42.67391,3.20671 q -0.24667,-4.68673 -0.24667,-9.1267901 -7.15343,4.6867301 -15.78688,7.6467701 -8.38678,2.96004 -18.25358,2.96004 z M 835.96476,-56.7341 q 0,12.82684 4.9334,20.22694 4.9334,7.15343 12.08683,10.11347 7.15343,2.96004 13.81352,2.96004 7.89344,0 15.78688,-3.45338 7.89344,-3.45338 14.8002,-12.08683 0,-2.96004 0,-5.67341 0,-19.98027 0.49334,-40.947219 -11.59349,-10.11347 -25.16034,-10.11347 -5.67341,0 -12.08683,1.72669 -6.41342,1.72669 -12.08683,6.16675 -5.42674,4.19339 -9.12679,11.84016 -3.45338,7.4001 -3.45338,19.240259 z m 203.50264,76.4677 q -23.6803,0 -41.6872,-9.37346 -17.76024,-9.12679 -27.87371,-25.65368 -9.8668,-16.52689 -9.8668,-38.23385 0,-13.07351 4.44006,-27.380369 4.44006,-14.55353 14.30686,-27.133701 9.8668,-12.58017 25.90039,-20.47361 16.2802,-7.89344 39.4672,-7.89344 16.7735,0 28.1203,3.70005 11.5935,3.70005 18.747,9.62013 7.4001,5.92008 11.1001,12.58017 3.9467,6.66009 5.1801,12.826841 1.48,5.92008 1.48,9.8668 0,23.926989 -20.2269,37.000499 -19.9803,12.82684 -56.7341,12.82684 -8.3868,0 -16.0336,-0.74001 -7.4001,-0.74001 -13.8135,-1.72669 4.6867,12.3335 15.5402,18.25358 10.8535,5.67341 22.447,5.67341 16.7735,0 29.6004,-5.92008 12.8268,-6.16675 24.1736,-18.74692 l 21.9537,31.5737601 q -7.8935,6.4134199 -17.7603,13.3201799 -9.6201,6.90676 -23.6803,11.34682 -14.0602,4.68673 -34.7805,4.68673 z m 5.4268,-119.141609 q -14.5536,0 -25.6537,7.4001 -11.1002,7.4001 -16.2802,19.48693 6.1667,0.98668 12.0868,1.72669 6.1668,0.49334 12.0868,0.49334 5.4268,0 12.3335,-0.98668 7.1535,-0.98668 13.8136,-2.96004 6.9067,-1.97336 11.3468,-4.9334 4.44,-3.20671 4.44,-7.4001 0,-1.97336 -1.9733,-4.9334 -1.9734,-2.96004 -7.1535,-5.42674 -5.18,-2.4667 -15.0468,-2.4667 z"
           id="path31" />
        <path
           d="m 115.07043,312.52689 q -0.24667,-7.89344 -0.24667,-16.03355 0,-7.89344 0,-15.78688 0,-36.26049 1.48002,-70.30095 1.48002,-34.28713 3.45338,-65.36755 -9.8668,2.4667 -16.52689,4.68673 l -9.62013,-39.4672 q 12.08683,-3.70005 25.40701,-6.41342 13.56685,-2.96004 26.39369,-4.686729 13.07351,-1.97336 23.92699,-2.71337 11.10015,-0.98668 18.25358,-0.98668 7.64677,0 18.74692,1.23335 11.34682,1.23335 23.18698,5.180069 12.08683,3.70005 22.44697,11.34682 10.36014,7.64677 16.77356,20.72028 6.66009,12.82684 6.66009,32.31377 0,20.22694 -8.88012,33.79379 -8.88012,13.32018 -23.43365,21.46029 -14.55353,7.89344 -32.0671,11.34682 -17.51357,3.45338 -34.5338,3.45338 -10.85348,0 -20.72028,-0.98668 -0.24667,11.84016 -0.24667,23.43365 0,15.78688 0.24667,29.35373 0.24667,13.32018 0.98668,23.43365 z m 71.28763,-176.61572 q -6.41342,0 -13.32018,0.49334 -6.66009,0.49334 -13.32018,1.23335 -1.23335,13.07351 -1.97336,28.36705 -0.74001,15.29354 -1.23335,31.32709 9.12679,0.74001 18.99359,0.74001 59.2008,0 59.2008,-35.02714 0,-13.81352 -11.84016,-20.47361 -11.84016,-6.66009 -36.50716,-6.66009 z m 184.75595,180.31577 q -19.7336,0 -34.5338,-6.41342 -14.55353,-6.41342 -24.17366,-17.51357 -9.62013,-11.34682 -14.30686,-25.90035 -4.68673,-14.55353 -4.68673,-30.58708 0,-16.28022 5.67341,-30.09374 5.92008,-14.06019 16.03355,-24.42033 10.36014,-10.36014 24.17366,-16.03355 13.81352,-5.92008 30.09374,-5.92008 17.02023,0 31.57376,5.92008 14.55353,5.92008 25.40701,16.52689 10.85348,10.60681 16.77356,24.91367 6.16675,14.30686 6.16675,31.08042 0,37.24717 -20.47361,57.96745 -20.47361,20.47361 -57.72078,20.47361 z m -0.24667,-39.96054 q 18.00691,0 27.38037,-10.11347 9.62013,-10.11347 9.62013,-29.10706 0,-17.02023 -10.36014,-27.38037 -10.36014,-10.36014 -27.1337,-10.36014 -10.11347,0 -18.50025,5.42674 -8.38678,5.18007 -13.56685,14.06019 -4.9334,8.63345 -4.9334,19.24026 0,9.37346 3.70005,18.25358 3.94672,8.88012 12.3335,14.55353 8.38678,5.42674 21.46029,5.42674 z m 145.78184,39.22053 q -13.56685,0 -22.44697,-5.92008 -8.63345,-5.67341 -13.81352,-15.78688 -4.9334,-10.11347 -7.4001,-23.18698 -2.22003,-13.07351 -2.96004,-27.87371 -0.49334,-15.04687 -0.49334,-30.09374 0,-13.07351 0.74001,-28.61372 0.74001,-15.78688 1.72669,-31.82043 1.23335,-16.28022 2.4667,-30.58708 1.48002,-14.30686 2.71337,-24.913669 l 44.64727,0.49334 q -1.97336,12.580169 -3.70005,28.613719 -1.72669,15.78688 -2.96004,32.0671 -0.98668,16.28022 -1.72669,30.09374 -0.49334,13.81352 -0.49334,21.95363 0,22.44697 0.74001,35.27381 0.98668,12.82684 2.71337,18.25358 1.97336,5.18007 5.18007,5.18007 4.19339,0 9.12679,-5.18007 4.9334,-5.42674 9.62013,-12.08683 l 20.96695,41.68723 q -7.64677,8.38678 -18.25358,15.29354 -10.60681,7.15343 -26.39369,7.15343 z m 64.13415,-1.48002 q -0.74001,-15.29354 -0.98668,-32.56044 -0.24667,-17.51357 -0.24667,-35.27381 0,-22.69364 0.49334,-44.4006 0.49334,-21.70696 1.23335,-39.71387 l 42.18057,-0.24667 q -0.74001,11.59349 -0.98668,28.36705 -0.24667,16.52689 -0.24667,34.78047 0,18.00691 0.24667,35.52048 0.24667,17.51357 0.49334,31.57376 0.49334,14.06019 0.74001,21.95363 z m 1.72669,-172.91567 -12.82684,-18.50025 q 5.67341,-4.19339 12.82684,-9.62013 7.15343,-5.42674 14.30686,-11.10015 7.15343,-5.920079 13.07351,-10.606808 6.16675,-4.9334 9.62013,-7.89344 l 20.47361,23.926988 q -3.70005,3.20671 -10.85348,7.64677 -6.90676,4.19339 -15.54021,9.12679 -8.38678,4.9334 -16.52689,9.37346 -8.14011,4.19339 -14.55353,7.64677 z m 134.43504,174.88903 q -20.72028,0 -38.23385,-8.63345 -17.51357,-8.63345 -28.12038,-24.667 -10.60681,-16.28022 -10.60681,-38.72719 0,-25.16034 9.8668,-44.15393 9.8668,-18.99359 27.62704,-29.35373 17.76024,-10.60681 41.44056,-10.60681 22.69364,0 38.48052,9.37346 15.78688,9.12679 28.12038,29.10706 L 751.23219,221.999 q -6.90676,-11.10015 -14.06019,-16.77356 -7.15343,-5.92008 -19.48693,-5.92008 -16.77356,0 -27.1337,11.84016 -10.36014,11.59349 -10.36014,31.08042 0,11.34682 5.42674,18.50025 5.67341,7.15343 13.81352,10.60681 8.14011,3.45338 15.29354,3.45338 7.4001,0 14.30686,-1.72669 6.90676,-1.97336 13.07351,-8.38678 6.16675,-6.41342 11.10015,-19.48693 l 37.0005,19.7336 q -7.4001,13.56685 -16.52689,25.16034 -9.12679,11.59349 -22.69364,18.74692 -13.32018,7.15343 -34.04046,7.15343 z m 88.80109,-179.32909 q 0,-2.22003 -0.24667,-4.44006 0,-2.4667 0,-5.42674 0,-7.89344 0.49334,-16.77356 0.49334,-8.88012 0.98668,-15.046869 l 43.90726,0.74001 q -0.74001,8.386779 -1.72669,18.993589 -0.74001,10.60681 -0.98668,21.95363 z m -0.98668,176.61572 q -0.74001,-15.29354 -0.98668,-32.56044 -0.24667,-17.51357 -0.24667,-35.02714 0,-22.94031 0.49334,-44.64727 0.49334,-21.70696 1.23335,-39.4672 l 42.42724,-0.24667 q -0.98668,11.34682 -1.23335,28.12038 -0.24667,16.52689 -0.24667,34.78047 0,18.00691 0.24667,35.52048 0.24667,17.51357 0.49334,31.82043 0.49334,14.06019 0.74001,21.70696 z m 128.76171,2.22003 q -18.50025,0 -33.54712,-9.62013 -15.04687,-9.37346 -23.92699,-25.40701 -8.63345,-16.28022 -8.63345,-36.26049 0,-18.74692 6.90676,-33.79379 6.90676,-15.29354 18.74692,-26.14702 12.08683,-10.85348 27.38037,-16.52689 15.29354,-5.92008 32.0671,-5.92008 14.06018,0 27.62703,3.94672 0.98668,-5.18007 1.72669,-10.36014 l 42.18061,7.15343 q -1.7267,4.68673 -3.4534,14.06019 -1.7267,9.37346 -2.9601,20.96695 -0.9866,11.59349 -1.7266,23.18698 -0.7401,11.59349 -0.7401,20.96695 0,7.64677 0.9867,15.04687 1.2334,7.15343 4.9334,11.84016 3.7001,4.44006 11.3468,4.44006 h 3.4534 l -6.1667,42.92058 q -16.2802,0 -26.8871,-5.67341 -10.60677,-5.42674 -17.02019,-14.8002 -10.60681,11.84016 -24.17366,15.78688 -13.56684,4.19339 -28.12037,4.19339 z M 907.8675,249.1327 q 1.23335,11.84016 9.62013,18.99359 8.63345,6.90676 21.70696,6.90676 12.58017,0 20.96694,-6.66009 8.38678,-6.90676 13.81352,-18.74692 -0.24667,-3.94672 -0.24667,-8.14011 0,-8.63345 0.49334,-17.76024 0.49334,-9.12679 1.23335,-18.00691 -10.36014,-3.94672 -21.70695,-3.94672 -13.32018,0 -23.92699,5.42674 -10.36014,5.18007 -16.28022,14.55353 -5.92008,9.37346 -5.92008,21.70696 0,1.48002 0,2.96004 0,1.48002 0.24667,2.71337 z"
           id="path32" />
      </g>
      <g
         id="g30">
        <g
           id="g29">
          <path
             class="cls-1"
             d="m 405.07,179.15 c -3.99,0.61 -7.97,1.23 -11.95,1.87 0.63,3.86 1.26,7.73 1.89,11.59 3.94,-0.64 7.87,-1.25 11.82,-1.85 -0.58,-3.87 -1.17,-7.74 -1.75,-11.61 z"
             id="path2"
             style="fill:#5c4c52" />
          <path
             class="cls-1"
             d="m 418.65,189.05 c -3.95,0.55 -7.89,1.12 -11.83,1.71 0.58,3.87 1.17,7.74 1.75,11.61 3.9,-0.58 7.8,-1.15 11.7,-1.7 -0.54,-3.88 -1.08,-7.76 -1.62,-11.63 z"
             id="path3"
             style="fill:#5c4c52" />
          <path
             class="cls-1"
             d="m 429.01,175.82 c -4,0.51 -7.99,1.04 -11.98,1.6 0.54,3.88 1.08,7.76 1.62,11.63 3.95,-0.54 7.89,-1.07 11.85,-1.58 -0.49,-3.88 -0.99,-7.77 -1.48,-11.65 z"
             id="path4"
             style="fill:#5c4c52" />
          <path
             class="cls-1"
             d="m 442.35,186.03 c -3.96,0.46 -7.91,0.94 -11.86,1.44 0.49,3.88 0.99,7.77 1.48,11.65 3.91,-0.49 7.81,-0.97 11.72,-1.42 -0.45,-3.89 -0.9,-7.78 -1.35,-11.67 z"
             id="path5"
             style="fill:#5c4c52" />
          <path
             class="cls-1"
             d="m 453.01,173.04 c -4,0.42 -8.01,0.86 -12.01,1.32 0.45,3.89 0.9,7.78 1.35,11.67 3.95,-0.45 7.91,-0.89 11.87,-1.3 -0.4,-3.89 -0.81,-7.79 -1.21,-11.68 z"
             id="path6"
             style="fill:#5c4c52" />
          <path
             class="cls-1"
             d="m 466.11,183.56 c -3.96,0.37 -7.92,0.76 -11.88,1.17 0.4,3.89 0.81,7.79 1.21,11.68 3.91,-0.4 7.83,-0.79 11.75,-1.15 -0.36,-3.9 -0.72,-7.8 -1.08,-11.7 z"
             id="path7"
             style="fill:#5c4c52" />
          <path
             class="cls-1"
             d="m 477.05,170.82 c -4.01,0.33 -8.02,0.67 -12.03,1.04 0.36,3.9 0.72,7.8 1.08,11.7 3.96,-0.36 7.93,-0.71 11.89,-1.03 -0.32,-3.9 -0.63,-7.8 -0.95,-11.71 z"
             id="path8"
             style="fill:#5c4c52" />
          <path
             class="cls-1"
             d="m 489.9,181.64 c -3.97,0.28 -7.93,0.58 -11.9,0.89 0.32,3.9 0.63,7.8 0.95,11.71 3.92,-0.31 7.84,-0.61 11.76,-0.88 -0.27,-3.91 -0.54,-7.81 -0.81,-11.72 z"
             id="path9"
             style="fill:#5c4c52" />
          <path
             class="cls-1"
             d="m 501.13,169.16 c -4.02,0.23 -8.03,0.49 -12.04,0.76 0.27,3.91 0.54,7.81 0.81,11.72 3.97,-0.27 7.94,-0.52 11.91,-0.75 -0.23,-3.91 -0.45,-7.82 -0.68,-11.73 z"
             id="path10"
             style="fill:#5c4c52" />
          <path
             class="cls-1"
             d="m 632.91,181.64 c -3.97,-0.27 -7.94,-0.52 -11.91,-0.75 -0.23,3.91 -0.45,7.82 -0.68,11.73 3.93,0.23 7.85,0.48 11.77,0.75 0.27,-3.91 0.54,-7.81 0.81,-11.72 z"
             id="path11"
             style="fill:#5c4c52" />
          <path
             class="cls-1"
             d="m 645.75,170.82 c -4.01,-0.32 -8.02,-0.62 -12.03,-0.9 -0.27,3.91 -0.54,7.81 -0.81,11.72 3.97,0.28 7.93,0.58 11.9,0.89 0.32,-3.9 0.63,-7.8 0.94,-11.71 z"
             id="path12"
             style="fill:#5c4c52" />
          <path
             class="cls-1"
             d="m 656.7,183.56 c -3.96,-0.36 -7.93,-0.71 -11.89,-1.03 -0.32,3.9 -0.63,7.8 -0.95,11.71 3.92,0.32 7.84,0.66 11.76,1.02 0.36,-3.9 0.72,-7.8 1.08,-11.7 z"
             id="path13"
             style="fill:#5c4c52" />
          <path
             class="cls-1"
             d="m 669.79,173.04 c -4,-0.41 -8.01,-0.81 -12.02,-1.18 -0.36,3.9 -0.72,7.8 -1.08,11.7 3.96,0.37 7.92,0.76 11.88,1.17 0.4,-3.89 0.81,-7.79 1.21,-11.68 z"
             id="path14"
             style="fill:#5c4c52" />
          <path
             class="cls-1"
             d="m 680.45,186.03 c -3.95,-0.45 -7.91,-0.89 -11.87,-1.3 -0.4,3.89 -0.81,7.79 -1.21,11.68 3.91,0.41 7.83,0.84 11.74,1.29 0.45,-3.89 0.9,-7.78 1.35,-11.67 z"
             id="path15"
             style="fill:#5c4c52" />
          <path
             class="cls-1"
             d="m 693.79,175.82 c -4,-0.5 -7.99,-0.99 -11.99,-1.46 -0.45,3.89 -0.9,7.78 -1.35,11.67 3.96,0.46 7.91,0.94 11.86,1.44 0.49,-3.88 0.99,-7.77 1.48,-11.65 z"
             id="path16"
             style="fill:#5c4c52" />
          <path
             class="cls-1"
             d="m 704.15,189.05 c -3.95,-0.55 -7.89,-1.07 -11.85,-1.58 -0.49,3.88 -0.99,7.77 -1.48,11.65 3.91,0.5 7.81,1.02 11.71,1.56 0.54,-3.88 1.08,-7.76 1.62,-11.63 z"
             id="path17"
             style="fill:#5c4c52" />
          <path
             class="cls-1"
             d="m 717.74,179.15 c -3.99,-0.6 -7.97,-1.18 -11.97,-1.73 -0.54,3.88 -1.08,7.76 -1.62,11.63 3.95,0.55 7.89,1.12 11.83,1.71 0.58,-3.87 1.17,-7.74 1.75,-11.61 z"
             id="path18"
             style="fill:#5c4c52" />
          <path
             class="cls-1"
             d="m 727.8,192.61 c -3.94,-0.64 -7.87,-1.25 -11.82,-1.85 -0.58,3.87 -1.17,7.74 -1.75,11.61 3.9,0.59 7.79,1.2 11.68,1.83 0.63,-3.86 1.26,-7.73 1.89,-11.59 z"
             id="path19"
             style="fill:#5c4c52" />
          <path
             class="cls-1"
             d="m 513.72,180.27 c -3.97,0.19 -7.94,0.39 -11.91,0.62 0.23,3.91 0.45,7.82 0.68,11.73 3.92,-0.22 7.85,-0.43 11.78,-0.61 -0.18,-3.91 -0.36,-7.82 -0.54,-11.73 z"
             id="path20"
             style="fill:#5c4c52" />
          <path
             class="cls-1"
             d="m 525.23,168.05 c -4.02,0.14 -8.04,0.3 -12.05,0.49 0.18,3.91 0.36,7.82 0.54,11.73 3.97,-0.18 7.94,-0.34 11.92,-0.48 -0.14,-3.91 -0.27,-7.83 -0.41,-11.74 z"
             id="path21"
             style="fill:#5c4c52" />
          <path
             class="cls-1"
             d="m 537.55,179.44 c -3.97,0.1 -7.95,0.21 -11.92,0.34 0.14,3.91 0.27,7.83 0.41,11.74 3.93,-0.13 7.86,-0.25 11.79,-0.34 -0.09,-3.91 -0.18,-7.83 -0.27,-11.74 z"
             id="path22"
             style="fill:#5c4c52" />
          <path
             class="cls-1"
             d="m 549.34,167.49 c -4.02,0.05 -8.04,0.12 -12.06,0.21 0.09,3.91 0.18,7.83 0.27,11.74 3.97,-0.09 7.95,-0.16 11.92,-0.21 -0.05,-3.91 -0.09,-7.83 -0.14,-11.74 z"
             id="path23"
             style="fill:#5c4c52" />
          <path
             class="cls-1"
             d="m 561.4,179.17 c -3.98,0 -7.95,0.03 -11.92,0.07 0.05,3.91 0.09,7.83 0.14,11.74 3.93,-0.04 7.86,-0.06 11.79,-0.07 0,-3.92 0,-7.83 0,-11.75 z"
             id="path24"
             style="fill:#5c4c52" />
          <path
             class="cls-1"
             d="m 573.46,167.49 c -4.02,-0.04 -8.04,-0.07 -12.06,-0.07 0,3.92 0,7.83 0,11.75 3.97,0 7.95,0.03 11.92,0.07 0.05,-3.91 0.09,-7.83 0.14,-11.74 z"
             id="path25"
             style="fill:#5c4c52" />
          <path
             class="cls-1"
             d="m 585.25,179.44 c -3.97,-0.09 -7.95,-0.16 -11.92,-0.21 -0.05,3.91 -0.09,7.83 -0.14,11.74 3.93,0.05 7.86,0.12 11.79,0.2 0.09,-3.91 0.18,-7.83 0.27,-11.74 z"
             id="path26"
             style="fill:#5c4c52" />
          <path
             class="cls-1"
             d="m 597.57,168.05 c -4.02,-0.14 -8.04,-0.25 -12.06,-0.35 -0.09,3.91 -0.18,7.83 -0.27,11.74 3.97,0.1 7.95,0.21 11.92,0.34 0.14,-3.91 0.27,-7.83 0.41,-11.74 z"
             id="path27"
             style="fill:#5c4c52" />
          <path
             class="cls-1"
             d="m 609.09,180.27 c -3.97,-0.18 -7.94,-0.34 -11.92,-0.48 -0.14,3.91 -0.27,7.83 -0.41,11.74 3.93,0.14 7.86,0.3 11.78,0.47 0.18,-3.91 0.36,-7.82 0.54,-11.73 z"
             id="path28"
             style="fill:#5c4c52" />
          <path
             class="cls-1"
             d="m 621.67,169.16 c -4.01,-0.23 -8.03,-0.44 -12.05,-0.62 -0.18,3.91 -0.36,7.82 -0.54,11.73 3.97,0.19 7.94,0.39 11.91,0.62 0.23,-3.91 0.45,-7.82 0.68,-11.73 z"
             id="path29"
             style="fill:#5c4c52" />
        </g>
        <path
           class="cls-1"
           d="M 561.4,0 C 406.55,0 351.5,90.13 360.45,103.69 l 24.9,75.47 v 38 c -0.1,15.92 10.15,30.06 25.31,34.92 48.71,15.7 99.56,23.76 150.74,23.89 51.18,-0.12 102.03,-8.17 150.74,-23.87 15.17,-4.86 25.42,-19 25.31,-34.93 v -38 l 24.9,-75.46 C 771.31,90.15 716.26,0.01 561.4,0.01 Z m 0,24.17 c 27.98,0 50.67,22.68 50.67,50.67 0,27.99 -22.68,50.67 -50.67,50.67 -27.99,0 -50.67,-22.68 -50.67,-50.67 0,-27.99 22.68,-50.67 50.67,-50.67 z M 725.84,201.5 C 616.65,187.57 506.12,187.65 396.95,201.74 v -19.47 c 108.79,-19.06 220.07,-19.14 328.89,-0.24 z"
           id="path30"
           style="fill:#5c4c52" />
      </g>
    </g>
  </g>
</svg>
